<svg xmlns="http://www.w3.org/2000/svg" viewBox="0 0 800 800" width="800" height="800"><g stroke-width="3.75" fill="none"><rect width="66.667" height="9.211" x="-33.333" y="-4.605" fill="hsla(0, 0%, 50%, 1.00)" rx="4.605" transform="rotate(45 0 0)"/><rect width="9.211" height="66.667" x="-4.605" y="-33.333" fill="hsla(0, 0%, 50%, 1.00)" rx="4.605" transform="rotate(45 0 0)"/><rect width="66.667" height="9.211" x="100" y="-4.605" fill="hsla(0, 0%, 100%, 1.00)" rx="4.605" transform="rotate(45 133.333 0)"/><rect width="9.211" height="66.667" x="128.728" y="-33.333" fill="hsla(0, 0%, 100%, 1.00)" rx="4.605" transform="rotate(45 133.333 0)"/><rect width="66.667" height="9.211" x="233.333" y="-4.605" fill="hsla(0, 0%, 50%, 1.00)" rx="4.605" transform="rotate(45 266.667 0)"/><rect width="9.211" height="66.667" x="262.061" y="-33.333" fill="hsla(0, 0%, 50%, 1.00)" rx="4.605" transform="rotate(45 266.667 0)"/><rect width="66.667" height="9.211" x="366.667" y="-4.605" fill="hsla(0, 0%, 100%, 1.00)" rx="4.605" transform="rotate(45 400 0)"/><rect width="9.211" height="66.667" x="395.395" y="-33.333" fill="hsla(0, 0%, 100%, 1.00)" rx="4.605" transform="rotate(45 400 0)"/><rect width="66.667" height="9.211" x="500" y="-4.605" fill="hsla(0, 0%, 50%, 1.00)" rx="4.605" transform="rotate(45 533.333 0)"/><rect width="9.211" height="66.667" x="528.728" y="-33.333" fill="hsla(0, 0%, 50%, 1.00)" rx="4.605" transform="rotate(45 533.333 0)"/><rect width="66.667" height="9.211" x="633.333" y="-4.605" fill="hsla(0, 0%, 100%, 1.00)" rx="4.605" transform="rotate(45 666.667 0)"/><rect width="9.211" height="66.667" x="662.061" y="-33.333" fill="hsla(0, 0%, 100%, 1.00)" rx="4.605" transform="rotate(45 666.667 0)"/><rect width="66.667" height="9.211" x="766.667" y="-4.605" fill="hsla(0, 0%, 50%, 1.00)" rx="4.605" transform="rotate(45 800 0)"/><rect width="9.211" height="66.667" x="795.395" y="-33.333" fill="hsla(0, 0%, 50%, 1.00)" rx="4.605" transform="rotate(45 800 0)"/><rect width="66.667" height="9.211" x="-33.333" y="128.728" fill="hsla(0, 0%, 100%, 1.00)" rx="4.605" transform="rotate(45 0 133.333)"/><rect width="9.211" height="66.667" x="-4.605" y="100" fill="hsla(0, 0%, 100%, 1.00)" rx="4.605" transform="rotate(45 0 133.333)"/><rect width="66.667" height="9.211" x="100" y="128.728" fill="hsla(0, 0%, 50%, 1.00)" rx="4.605" transform="rotate(45 133.333 133.333)"/><rect width="9.211" height="66.667" x="128.728" y="100" fill="hsla(0, 0%, 50%, 1.00)" rx="4.605" transform="rotate(45 133.333 133.333)"/><rect width="66.667" height="9.211" x="233.333" y="128.728" fill="hsla(0, 0%, 100%, 1.00)" rx="4.605" transform="rotate(45 266.667 133.333)"/><rect width="9.211" height="66.667" x="262.061" y="100" fill="hsla(0, 0%, 100%, 1.00)" rx="4.605" transform="rotate(45 266.667 133.333)"/><rect width="66.667" height="9.211" x="366.667" y="128.728" fill="hsla(0, 0%, 50%, 1.00)" rx="4.605" transform="rotate(45 400 133.333)"/><rect width="9.211" height="66.667" x="395.395" y="100" fill="hsla(0, 0%, 50%, 1.00)" rx="4.605" transform="rotate(45 400 133.333)"/><rect width="66.667" height="9.211" x="500" y="128.728" fill="hsla(0, 0%, 100%, 1.00)" rx="4.605" transform="rotate(45 533.333 133.333)"/><rect width="9.211" height="66.667" x="528.728" y="100" fill="hsla(0, 0%, 100%, 1.00)" rx="4.605" transform="rotate(45 533.333 133.333)"/><rect width="66.667" height="9.211" x="633.333" y="128.728" fill="hsla(0, 0%, 50%, 1.00)" rx="4.605" transform="rotate(45 666.667 133.333)"/><rect width="9.211" height="66.667" x="662.061" y="100" fill="hsla(0, 0%, 50%, 1.00)" rx="4.605" transform="rotate(45 666.667 133.333)"/><rect width="66.667" height="9.211" x="766.667" y="128.728" fill="hsla(0, 0%, 100%, 1.00)" rx="4.605" transform="rotate(45 800 133.333)"/><rect width="9.211" height="66.667" x="795.395" y="100" fill="hsla(0, 0%, 100%, 1.00)" rx="4.605" transform="rotate(45 800 133.333)"/><rect width="66.667" height="9.211" x="-33.333" y="262.061" fill="hsla(0, 0%, 50%, 1.00)" rx="4.605" transform="rotate(45 0 266.667)"/><rect width="9.211" height="66.667" x="-4.605" y="233.333" fill="hsla(0, 0%, 50%, 1.00)" rx="4.605" transform="rotate(45 0 266.667)"/><rect width="66.667" height="9.211" x="100" y="262.061" fill="hsla(0, 0%, 100%, 1.00)" rx="4.605" transform="rotate(45 133.333 266.667)"/><rect width="9.211" height="66.667" x="128.728" y="233.333" fill="hsla(0, 0%, 100%, 1.00)" rx="4.605" transform="rotate(45 133.333 266.667)"/><rect width="66.667" height="9.211" x="233.333" y="262.061" fill="hsla(0, 0%, 50%, 1.00)" rx="4.605" transform="rotate(45 266.667 266.667)"/><rect width="9.211" height="66.667" x="262.061" y="233.333" fill="hsla(0, 0%, 50%, 1.00)" rx="4.605" transform="rotate(45 266.667 266.667)"/><rect width="66.667" height="9.211" x="366.667" y="262.061" fill="hsla(0, 0%, 100%, 1.00)" rx="4.605" transform="rotate(45 400 266.667)"/><rect width="9.211" height="66.667" x="395.395" y="233.333" fill="hsla(0, 0%, 100%, 1.00)" rx="4.605" transform="rotate(45 400 266.667)"/><rect width="66.667" height="9.211" x="500" y="262.061" fill="hsla(0, 0%, 50%, 1.00)" rx="4.605" transform="rotate(45 533.333 266.667)"/><rect width="9.211" height="66.667" x="528.728" y="233.333" fill="hsla(0, 0%, 50%, 1.00)" rx="4.605" transform="rotate(45 533.333 266.667)"/><rect width="66.667" height="9.211" x="633.333" y="262.061" fill="hsla(0, 0%, 100%, 1.00)" rx="4.605" transform="rotate(45 666.667 266.667)"/><rect width="9.211" height="66.667" x="662.061" y="233.333" fill="hsla(0, 0%, 100%, 1.00)" rx="4.605" transform="rotate(45 666.667 266.667)"/><rect width="66.667" height="9.211" x="766.667" y="262.061" fill="hsla(0, 0%, 50%, 1.00)" rx="4.605" transform="rotate(45 800 266.667)"/><rect width="9.211" height="66.667" x="795.395" y="233.333" fill="hsla(0, 0%, 50%, 1.00)" rx="4.605" transform="rotate(45 800 266.667)"/><rect width="66.667" height="9.211" x="-33.333" y="395.395" fill="hsla(0, 0%, 100%, 1.00)" rx="4.605" transform="rotate(45 0 400)"/><rect width="9.211" height="66.667" x="-4.605" y="366.667" fill="hsla(0, 0%, 100%, 1.00)" rx="4.605" transform="rotate(45 0 400)"/><rect width="66.667" height="9.211" x="100" y="395.395" fill="hsla(0, 0%, 50%, 1.00)" rx="4.605" transform="rotate(45 133.333 400)"/><rect width="9.211" height="66.667" x="128.728" y="366.667" fill="hsla(0, 0%, 50%, 1.00)" rx="4.605" transform="rotate(45 133.333 400)"/><rect width="66.667" height="9.211" x="233.333" y="395.395" fill="hsla(0, 0%, 100%, 1.00)" rx="4.605" transform="rotate(45 266.667 400)"/><rect width="9.211" height="66.667" x="262.061" y="366.667" fill="hsla(0, 0%, 100%, 1.00)" rx="4.605" transform="rotate(45 266.667 400)"/><rect width="66.667" height="9.211" x="366.667" y="395.395" fill="hsla(0, 0%, 50%, 1.00)" rx="4.605" transform="rotate(45 400 400)"/><rect width="9.211" height="66.667" x="395.395" y="366.667" fill="hsla(0, 0%, 50%, 1.00)" rx="4.605" transform="rotate(45 400 400)"/><rect width="66.667" height="9.211" x="500" y="395.395" fill="hsla(0, 0%, 100%, 1.00)" rx="4.605" transform="rotate(45 533.333 400)"/><rect width="9.211" height="66.667" x="528.728" y="366.667" fill="hsla(0, 0%, 100%, 1.00)" rx="4.605" transform="rotate(45 533.333 400)"/><rect width="66.667" height="9.211" x="633.333" y="395.395" fill="hsla(0, 0%, 50%, 1.00)" rx="4.605" transform="rotate(45 666.667 400)"/><rect width="9.211" height="66.667" x="662.061" y="366.667" fill="hsla(0, 0%, 50%, 1.00)" rx="4.605" transform="rotate(45 666.667 400)"/><rect width="66.667" height="9.211" x="766.667" y="395.395" fill="hsla(0, 0%, 100%, 1.00)" rx="4.605" transform="rotate(45 800 400)"/><rect width="9.211" height="66.667" x="795.395" y="366.667" fill="hsla(0, 0%, 100%, 1.00)" rx="4.605" transform="rotate(45 800 400)"/><rect width="66.667" height="9.211" x="-33.333" y="528.728" fill="hsla(0, 0%, 50%, 1.00)" rx="4.605" transform="rotate(45 0 533.333)"/><rect width="9.211" height="66.667" x="-4.605" y="500" fill="hsla(0, 0%, 50%, 1.00)" rx="4.605" transform="rotate(45 0 533.333)"/><rect width="66.667" height="9.211" x="100" y="528.728" fill="hsla(0, 0%, 100%, 1.00)" rx="4.605" transform="rotate(45 133.333 533.333)"/><rect width="9.211" height="66.667" x="128.728" y="500" fill="hsla(0, 0%, 100%, 1.00)" rx="4.605" transform="rotate(45 133.333 533.333)"/><rect width="66.667" height="9.211" x="233.333" y="528.728" fill="hsla(0, 0%, 50%, 1.00)" rx="4.605" transform="rotate(45 266.667 533.333)"/><rect width="9.211" height="66.667" x="262.061" y="500" fill="hsla(0, 0%, 50%, 1.00)" rx="4.605" transform="rotate(45 266.667 533.333)"/><rect width="66.667" height="9.211" x="366.667" y="528.728" fill="hsla(0, 0%, 100%, 1.00)" rx="4.605" transform="rotate(45 400 533.333)"/><rect width="9.211" height="66.667" x="395.395" y="500" fill="hsla(0, 0%, 100%, 1.00)" rx="4.605" transform="rotate(45 400 533.333)"/><rect width="66.667" height="9.211" x="500" y="528.728" fill="hsla(0, 0%, 50%, 1.00)" rx="4.605" transform="rotate(45 533.333 533.333)"/><rect width="9.211" height="66.667" x="528.728" y="500" fill="hsla(0, 0%, 50%, 1.00)" rx="4.605" transform="rotate(45 533.333 533.333)"/><rect width="66.667" height="9.211" x="633.333" y="528.728" fill="hsla(0, 0%, 100%, 1.00)" rx="4.605" transform="rotate(45 666.667 533.333)"/><rect width="9.211" height="66.667" x="662.061" y="500" fill="hsla(0, 0%, 100%, 1.00)" rx="4.605" transform="rotate(45 666.667 533.333)"/><rect width="66.667" height="9.211" x="766.667" y="528.728" fill="hsla(0, 0%, 50%, 1.00)" rx="4.605" transform="rotate(45 800 533.333)"/><rect width="9.211" height="66.667" x="795.395" y="500" fill="hsla(0, 0%, 50%, 1.00)" rx="4.605" transform="rotate(45 800 533.333)"/><rect width="66.667" height="9.211" x="-33.333" y="662.061" fill="hsla(0, 0%, 100%, 1.00)" rx="4.605" transform="rotate(45 0 666.667)"/><rect width="9.211" height="66.667" x="-4.605" y="633.333" fill="hsla(0, 0%, 100%, 1.00)" rx="4.605" transform="rotate(45 0 666.667)"/><rect width="66.667" height="9.211" x="100" y="662.061" fill="hsla(0, 0%, 50%, 1.00)" rx="4.605" transform="rotate(45 133.333 666.667)"/><rect width="9.211" height="66.667" x="128.728" y="633.333" fill="hsla(0, 0%, 50%, 1.00)" rx="4.605" transform="rotate(45 133.333 666.667)"/><rect width="66.667" height="9.211" x="233.333" y="662.061" fill="hsla(0, 0%, 100%, 1.00)" rx="4.605" transform="rotate(45 266.667 666.667)"/><rect width="9.211" height="66.667" x="262.061" y="633.333" fill="hsla(0, 0%, 100%, 1.00)" rx="4.605" transform="rotate(45 266.667 666.667)"/><rect width="66.667" height="9.211" x="366.667" y="662.061" fill="hsla(0, 0%, 50%, 1.00)" rx="4.605" transform="rotate(45 400 666.667)"/><rect width="9.211" height="66.667" x="395.395" y="633.333" fill="hsla(0, 0%, 50%, 1.00)" rx="4.605" transform="rotate(45 400 666.667)"/><rect width="66.667" height="9.211" x="500" y="662.061" fill="hsla(0, 0%, 100%, 1.00)" rx="4.605" transform="rotate(45 533.333 666.667)"/><rect width="9.211" height="66.667" x="528.728" y="633.333" fill="hsla(0, 0%, 100%, 1.00)" rx="4.605" transform="rotate(45 533.333 666.667)"/><rect width="66.667" height="9.211" x="633.333" y="662.061" fill="hsla(0, 0%, 50%, 1.00)" rx="4.605" transform="rotate(45 666.667 666.667)"/><rect width="9.211" height="66.667" x="662.061" y="633.333" fill="hsla(0, 0%, 50%, 1.00)" rx="4.605" transform="rotate(45 666.667 666.667)"/><rect width="66.667" height="9.211" x="766.667" y="662.061" fill="hsla(0, 0%, 100%, 1.00)" rx="4.605" transform="rotate(45 800 666.667)"/><rect width="9.211" height="66.667" x="795.395" y="633.333" fill="hsla(0, 0%, 100%, 1.00)" rx="4.605" transform="rotate(45 800 666.667)"/><rect width="66.667" height="9.211" x="-33.333" y="795.395" fill="hsla(0, 0%, 50%, 1.00)" rx="4.605" transform="rotate(45 0 800)"/><rect width="9.211" height="66.667" x="-4.605" y="766.667" fill="hsla(0, 0%, 50%, 1.00)" rx="4.605" transform="rotate(45 0 800)"/><rect width="66.667" height="9.211" x="100" y="795.395" fill="hsla(0, 0%, 100%, 1.00)" rx="4.605" transform="rotate(45 133.333 800)"/><rect width="9.211" height="66.667" x="128.728" y="766.667" fill="hsla(0, 0%, 100%, 1.00)" rx="4.605" transform="rotate(45 133.333 800)"/><rect width="66.667" height="9.211" x="233.333" y="795.395" fill="hsla(0, 0%, 50%, 1.00)" rx="4.605" transform="rotate(45 266.667 800)"/><rect width="9.211" height="66.667" x="262.061" y="766.667" fill="hsla(0, 0%, 50%, 1.00)" rx="4.605" transform="rotate(45 266.667 800)"/><rect width="66.667" height="9.211" x="366.667" y="795.395" fill="hsla(0, 0%, 100%, 1.00)" rx="4.605" transform="rotate(45 400 800)"/><rect width="9.211" height="66.667" x="395.395" y="766.667" fill="hsla(0, 0%, 100%, 1.00)" rx="4.605" transform="rotate(45 400 800)"/><rect width="66.667" height="9.211" x="500" y="795.395" fill="hsla(0, 0%, 50%, 1.00)" rx="4.605" transform="rotate(45 533.333 800)"/><rect width="9.211" height="66.667" x="528.728" y="766.667" fill="hsla(0, 0%, 50%, 1.00)" rx="4.605" transform="rotate(45 533.333 800)"/><rect width="66.667" height="9.211" x="633.333" y="795.395" fill="hsla(0, 0%, 100%, 1.00)" rx="4.605" transform="rotate(45 666.667 800)"/><rect width="9.211" height="66.667" x="662.061" y="766.667" fill="hsla(0, 0%, 100%, 1.00)" rx="4.605" transform="rotate(45 666.667 800)"/><rect width="66.667" height="9.211" x="766.667" y="795.395" fill="hsla(0, 0%, 50%, 1.00)" rx="4.605" transform="rotate(45 800 800)"/><rect width="9.211" height="66.667" x="795.395" y="766.667" fill="hsla(0, 0%, 50%, 1.00)" rx="4.605" transform="rotate(45 800 800)"/></g></svg>