<svg xmlns="http://www.w3.org/2000/svg" viewBox="0 0 800 800" width="800" height="800"><g stroke-width="3" stroke="hsla(0, 0%, 100%, 1.00)" fill="none"><path opacity=".15" d="M0 0h100v100H0z"/><circle r="9.671" fill="hsla(0, 0%, 100%, 1.00)" stroke="none"/><path opacity=".15" d="M100 0h100v100H100z"/><circle r="9.671" cx="100" fill="hsla(0, 0%, 100%, 1.00)" stroke="none"/><path opacity=".15" d="M200 0h100v100H200z"/><circle r="9.671" cx="200" fill="hsla(0, 0%, 100%, 1.00)" stroke="none"/><path opacity=".15" d="M300 0h100v100H300z"/><circle r="9.671" cx="300" fill="hsla(0, 0%, 100%, 1.00)" stroke="none"/><path opacity=".15" d="M400 0h100v100H400z"/><circle r="9.671" cx="400" fill="hsla(0, 0%, 100%, 1.00)" stroke="none"/><path opacity=".15" d="M500 0h100v100H500z"/><circle r="9.671" cx="500" fill="hsla(0, 0%, 100%, 1.00)" stroke="none"/><path opacity=".15" d="M600 0h100v100H600z"/><circle r="9.671" cx="600" fill="hsla(0, 0%, 100%, 1.00)" stroke="none"/><path opacity=".15" d="M700 0h100v100H700z"/><circle r="9.671" cx="700" fill="hsla(0, 0%, 100%, 1.00)" stroke="none"/><path opacity=".15" d="M800 0h100v100H800z"/><circle r="9.671" cx="800" fill="hsla(0, 0%, 100%, 1.00)" stroke="none"/><path opacity=".15" d="M0 100h100v100H0z"/><circle r="9.671" cy="100" fill="hsla(0, 0%, 100%, 1.00)" stroke="none"/><path opacity=".15" d="M100 100h100v100H100z"/><circle r="9.671" cx="100" cy="100" fill="hsla(0, 0%, 100%, 1.00)" stroke="none"/><path opacity=".15" d="M200 100h100v100H200z"/><circle r="9.671" cx="200" cy="100" fill="hsla(0, 0%, 100%, 1.00)" stroke="none"/><path opacity=".15" d="M300 100h100v100H300z"/><circle r="9.671" cx="300" cy="100" fill="hsla(0, 0%, 100%, 1.00)" stroke="none"/><path opacity=".15" d="M400 100h100v100H400z"/><circle r="9.671" cx="400" cy="100" fill="hsla(0, 0%, 100%, 1.00)" stroke="none"/><path opacity=".15" d="M500 100h100v100H500z"/><circle r="9.671" cx="500" cy="100" fill="hsla(0, 0%, 100%, 1.00)" stroke="none"/><path opacity=".15" d="M600 100h100v100H600z"/><circle r="9.671" cx="600" cy="100" fill="hsla(0, 0%, 100%, 1.00)" stroke="none"/><path opacity=".15" d="M700 100h100v100H700z"/><circle r="9.671" cx="700" cy="100" fill="hsla(0, 0%, 100%, 1.00)" stroke="none"/><path opacity=".15" d="M800 100h100v100H800z"/><circle r="9.671" cx="800" cy="100" fill="hsla(0, 0%, 100%, 1.00)" stroke="none"/><path opacity=".15" d="M0 200h100v100H0z"/><circle r="9.671" cy="200" fill="hsla(0, 0%, 100%, 1.00)" stroke="none"/><path opacity=".15" d="M100 200h100v100H100z"/><circle r="9.671" cx="100" cy="200" fill="hsla(0, 0%, 100%, 1.00)" stroke="none"/><path opacity=".15" d="M200 200h100v100H200z"/><circle r="9.671" cx="200" cy="200" fill="hsla(0, 0%, 100%, 1.00)" stroke="none"/><path opacity=".15" d="M300 200h100v100H300z"/><circle r="9.671" cx="300" cy="200" fill="hsla(0, 0%, 100%, 1.00)" stroke="none"/><path opacity=".15" d="M400 200h100v100H400z"/><circle r="9.671" cx="400" cy="200" fill="hsla(0, 0%, 100%, 1.00)" stroke="none"/><path opacity=".15" d="M500 200h100v100H500z"/><circle r="9.671" cx="500" cy="200" fill="hsla(0, 0%, 100%, 1.00)" stroke="none"/><path opacity=".15" d="M600 200h100v100H600z"/><circle r="9.671" cx="600" cy="200" fill="hsla(0, 0%, 100%, 1.00)" stroke="none"/><path opacity=".15" d="M700 200h100v100H700z"/><circle r="9.671" cx="700" cy="200" fill="hsla(0, 0%, 100%, 1.00)" stroke="none"/><path opacity=".15" d="M800 200h100v100H800z"/><circle r="9.671" cx="800" cy="200" fill="hsla(0, 0%, 100%, 1.00)" stroke="none"/><path opacity=".15" d="M0 300h100v100H0z"/><circle r="9.671" cy="300" fill="hsla(0, 0%, 100%, 1.00)" stroke="none"/><path opacity=".15" d="M100 300h100v100H100z"/><circle r="9.671" cx="100" cy="300" fill="hsla(0, 0%, 100%, 1.00)" stroke="none"/><path opacity=".15" d="M200 300h100v100H200z"/><circle r="9.671" cx="200" cy="300" fill="hsla(0, 0%, 100%, 1.00)" stroke="none"/><path opacity=".15" d="M300 300h100v100H300z"/><circle r="9.671" cx="300" cy="300" fill="hsla(0, 0%, 100%, 1.00)" stroke="none"/><path opacity=".15" d="M400 300h100v100H400z"/><circle r="9.671" cx="400" cy="300" fill="hsla(0, 0%, 100%, 1.00)" stroke="none"/><path opacity=".15" d="M500 300h100v100H500z"/><circle r="9.671" cx="500" cy="300" fill="hsla(0, 0%, 100%, 1.00)" stroke="none"/><path opacity=".15" d="M600 300h100v100H600z"/><circle r="9.671" cx="600" cy="300" fill="hsla(0, 0%, 100%, 1.00)" stroke="none"/><path opacity=".15" d="M700 300h100v100H700z"/><circle r="9.671" cx="700" cy="300" fill="hsla(0, 0%, 100%, 1.00)" stroke="none"/><path opacity=".15" d="M800 300h100v100H800z"/><circle r="9.671" cx="800" cy="300" fill="hsla(0, 0%, 100%, 1.00)" stroke="none"/><path opacity=".15" d="M0 400h100v100H0z"/><circle r="9.671" cy="400" fill="hsla(0, 0%, 100%, 1.00)" stroke="none"/><path opacity=".15" d="M100 400h100v100H100z"/><circle r="9.671" cx="100" cy="400" fill="hsla(0, 0%, 100%, 1.00)" stroke="none"/><path opacity=".15" d="M200 400h100v100H200z"/><circle r="9.671" cx="200" cy="400" fill="hsla(0, 0%, 100%, 1.00)" stroke="none"/><path opacity=".15" d="M300 400h100v100H300z"/><circle r="9.671" cx="300" cy="400" fill="hsla(0, 0%, 100%, 1.00)" stroke="none"/><path opacity=".15" d="M400 400h100v100H400z"/><circle r="9.671" cx="400" cy="400" fill="hsla(0, 0%, 100%, 1.00)" stroke="none"/><path opacity=".15" d="M500 400h100v100H500z"/><circle r="9.671" cx="500" cy="400" fill="hsla(0, 0%, 100%, 1.00)" stroke="none"/><path opacity=".15" d="M600 400h100v100H600z"/><circle r="9.671" cx="600" cy="400" fill="hsla(0, 0%, 100%, 1.00)" stroke="none"/><path opacity=".15" d="M700 400h100v100H700z"/><circle r="9.671" cx="700" cy="400" fill="hsla(0, 0%, 100%, 1.00)" stroke="none"/><path opacity=".15" d="M800 400h100v100H800z"/><circle r="9.671" cx="800" cy="400" fill="hsla(0, 0%, 100%, 1.00)" stroke="none"/><path opacity=".15" d="M0 500h100v100H0z"/><circle r="9.671" cy="500" fill="hsla(0, 0%, 100%, 1.00)" stroke="none"/><path opacity=".15" d="M100 500h100v100H100z"/><circle r="9.671" cx="100" cy="500" fill="hsla(0, 0%, 100%, 1.00)" stroke="none"/><path opacity=".15" d="M200 500h100v100H200z"/><circle r="9.671" cx="200" cy="500" fill="hsla(0, 0%, 100%, 1.00)" stroke="none"/><path opacity=".15" d="M300 500h100v100H300z"/><circle r="9.671" cx="300" cy="500" fill="hsla(0, 0%, 100%, 1.00)" stroke="none"/><path opacity=".15" d="M400 500h100v100H400z"/><circle r="9.671" cx="400" cy="500" fill="hsla(0, 0%, 100%, 1.00)" stroke="none"/><path opacity=".15" d="M500 500h100v100H500z"/><circle r="9.671" cx="500" cy="500" fill="hsla(0, 0%, 100%, 1.00)" stroke="none"/><path opacity=".15" d="M600 500h100v100H600z"/><circle r="9.671" cx="600" cy="500" fill="hsla(0, 0%, 100%, 1.00)" stroke="none"/><path opacity=".15" d="M700 500h100v100H700z"/><circle r="9.671" cx="700" cy="500" fill="hsla(0, 0%, 100%, 1.00)" stroke="none"/><path opacity=".15" d="M800 500h100v100H800z"/><circle r="9.671" cx="800" cy="500" fill="hsla(0, 0%, 100%, 1.00)" stroke="none"/><path opacity=".15" d="M0 600h100v100H0z"/><circle r="9.671" cy="600" fill="hsla(0, 0%, 100%, 1.00)" stroke="none"/><path opacity=".15" d="M100 600h100v100H100z"/><circle r="9.671" cx="100" cy="600" fill="hsla(0, 0%, 100%, 1.00)" stroke="none"/><path opacity=".15" d="M200 600h100v100H200z"/><circle r="9.671" cx="200" cy="600" fill="hsla(0, 0%, 100%, 1.00)" stroke="none"/><path opacity=".15" d="M300 600h100v100H300z"/><circle r="9.671" cx="300" cy="600" fill="hsla(0, 0%, 100%, 1.00)" stroke="none"/><path opacity=".15" d="M400 600h100v100H400z"/><circle r="9.671" cx="400" cy="600" fill="hsla(0, 0%, 100%, 1.00)" stroke="none"/><path opacity=".15" d="M500 600h100v100H500z"/><circle r="9.671" cx="500" cy="600" fill="hsla(0, 0%, 100%, 1.00)" stroke="none"/><path opacity=".15" d="M600 600h100v100H600z"/><circle r="9.671" cx="600" cy="600" fill="hsla(0, 0%, 100%, 1.00)" stroke="none"/><path opacity=".15" d="M700 600h100v100H700z"/><circle r="9.671" cx="700" cy="600" fill="hsla(0, 0%, 100%, 1.00)" stroke="none"/><path opacity=".15" d="M800 600h100v100H800z"/><circle r="9.671" cx="800" cy="600" fill="hsla(0, 0%, 100%, 1.00)" stroke="none"/><path opacity=".15" d="M0 700h100v100H0z"/><circle r="9.671" cy="700" fill="hsla(0, 0%, 100%, 1.00)" stroke="none"/><path opacity=".15" d="M100 700h100v100H100z"/><circle r="9.671" cx="100" cy="700" fill="hsla(0, 0%, 100%, 1.00)" stroke="none"/><path opacity=".15" d="M200 700h100v100H200z"/><circle r="9.671" cx="200" cy="700" fill="hsla(0, 0%, 100%, 1.00)" stroke="none"/><path opacity=".15" d="M300 700h100v100H300z"/><circle r="9.671" cx="300" cy="700" fill="hsla(0, 0%, 100%, 1.00)" stroke="none"/><path opacity=".15" d="M400 700h100v100H400z"/><circle r="9.671" cx="400" cy="700" fill="hsla(0, 0%, 100%, 1.00)" stroke="none"/><path opacity=".15" d="M500 700h100v100H500z"/><circle r="9.671" cx="500" cy="700" fill="hsla(0, 0%, 100%, 1.00)" stroke="none"/><path opacity=".15" d="M600 700h100v100H600z"/><circle r="9.671" cx="600" cy="700" fill="hsla(0, 0%, 100%, 1.00)" stroke="none"/><path opacity=".15" d="M700 700h100v100H700z"/><circle r="9.671" cx="700" cy="700" fill="hsla(0, 0%, 100%, 1.00)" stroke="none"/><path opacity=".15" d="M800 700h100v100H800z"/><circle r="9.671" cx="800" cy="700" fill="hsla(0, 0%, 100%, 1.00)" stroke="none"/><path opacity=".15" d="M0 800h100v100H0z"/><circle r="9.671" cy="800" fill="hsla(0, 0%, 100%, 1.00)" stroke="none"/><path opacity=".15" d="M100 800h100v100H100z"/><circle r="9.671" cx="100" cy="800" fill="hsla(0, 0%, 100%, 1.00)" stroke="none"/><path opacity=".15" d="M200 800h100v100H200z"/><circle r="9.671" cx="200" cy="800" fill="hsla(0, 0%, 100%, 1.00)" stroke="none"/><path opacity=".15" d="M300 800h100v100H300z"/><circle r="9.671" cx="300" cy="800" fill="hsla(0, 0%, 100%, 1.00)" stroke="none"/><path opacity=".15" d="M400 800h100v100H400z"/><circle r="9.671" cx="400" cy="800" fill="hsla(0, 0%, 100%, 1.00)" stroke="none"/><path opacity=".15" d="M500 800h100v100H500z"/><circle r="9.671" cx="500" cy="800" fill="hsla(0, 0%, 100%, 1.00)" stroke="none"/><path opacity=".15" d="M600 800h100v100H600z"/><circle r="9.671" cx="600" cy="800" fill="hsla(0, 0%, 100%, 1.00)" stroke="none"/><path opacity=".15" d="M700 800h100v100H700z"/><circle r="9.671" cx="700" cy="800" fill="hsla(0, 0%, 100%, 1.00)" stroke="none"/><path opacity=".15" d="M800 800h100v100H800z"/><circle r="9.671" cx="800" cy="800" fill="hsla(0, 0%, 100%, 1.00)" stroke="none"/></g></svg>