<svg xmlns="http://www.w3.org/2000/svg" viewBox="0 0 800 800" width="800" height="800"><g stroke-width="2.75" stroke="hsla(0, 0%, 100%, 1.00)" fill="none"><circle r="6.053" fill="hsla(0, 0%, 100%, 1.00)" stroke="none"/><circle r="6.053" cx="57.143" fill="hsla(0, 0%, 100%, 1.00)" stroke="none"/><circle r="6.053" cx="114.286" fill="hsla(0, 0%, 100%, 1.00)" stroke="none"/><circle r="6.053" cx="171.429" fill="hsla(0, 0%, 100%, 1.00)" stroke="none"/><circle r="6.053" cx="228.571" fill="hsla(0, 0%, 100%, 1.00)" stroke="none"/><circle r="6.053" cx="285.714" fill="hsla(0, 0%, 100%, 1.00)" stroke="none"/><circle r="6.053" cx="342.857" fill="hsla(0, 0%, 100%, 1.00)" stroke="none"/><circle r="6.053" cx="400" fill="hsla(0, 0%, 100%, 1.00)" stroke="none"/><circle r="6.053" cx="457.143" fill="hsla(0, 0%, 100%, 1.00)" stroke="none"/><circle r="6.053" cx="514.286" fill="hsla(0, 0%, 100%, 1.00)" stroke="none"/><circle r="6.053" cx="571.429" fill="hsla(0, 0%, 100%, 1.00)" stroke="none"/><circle r="6.053" cx="628.571" fill="hsla(0, 0%, 100%, 1.00)" stroke="none"/><circle r="6.053" cx="685.714" fill="hsla(0, 0%, 100%, 1.00)" stroke="none"/><circle r="6.053" cx="742.857" fill="hsla(0, 0%, 100%, 1.00)" stroke="none"/><circle r="6.053" cx="800" fill="hsla(0, 0%, 100%, 1.00)" stroke="none"/><circle r="6.053" cy="57.143" fill="hsla(0, 0%, 100%, 1.00)" stroke="none"/><circle r="6.053" cx="57.143" cy="57.143" fill="hsla(0, 0%, 100%, 1.00)" stroke="none"/><circle r="6.053" cx="114.286" cy="57.143"/><circle r="6.053" cx="171.429" cy="57.143" fill="hsla(0, 0%, 100%, 1.00)" stroke="none"/><circle r="6.053" cx="228.571" cy="57.143" fill="hsla(0, 0%, 100%, 1.00)" stroke="none"/><circle r="6.053" cx="285.714" cy="57.143" fill="hsla(0, 0%, 100%, 1.00)" stroke="none"/><circle r="6.053" cx="342.857" cy="57.143"/><circle r="6.053" cx="400" cy="57.143" fill="hsla(0, 0%, 100%, 1.00)" stroke="none"/><circle r="6.053" cx="457.143" cy="57.143" fill="hsla(0, 0%, 100%, 1.00)" stroke="none"/><circle r="6.053" cx="514.286" cy="57.143" fill="hsla(0, 0%, 100%, 1.00)" stroke="none"/><circle r="6.053" cx="571.429" cy="57.143"/><circle r="6.053" cx="628.571" cy="57.143"/><circle r="6.053" cx="685.714" cy="57.143" fill="hsla(0, 0%, 100%, 1.00)" stroke="none"/><circle r="6.053" cx="742.857" cy="57.143" fill="hsla(0, 0%, 100%, 1.00)" stroke="none"/><circle r="6.053" cx="800" cy="57.143" fill="hsla(0, 0%, 100%, 1.00)" stroke="none"/><circle r="6.053" cy="114.286" fill="hsla(0, 0%, 100%, 1.00)" stroke="none"/><circle r="6.053" cx="57.143" cy="114.286" fill="hsla(0, 0%, 100%, 1.00)" stroke="none"/><circle r="6.053" cx="114.286" cy="114.286" fill="hsla(0, 0%, 100%, 1.00)" stroke="none"/><circle r="6.053" cx="171.429" cy="114.286" fill="hsla(0, 0%, 100%, 1.00)" stroke="none"/><circle r="6.053" cx="228.571" cy="114.286"/><circle r="6.053" cx="285.714" cy="114.286" fill="hsla(0, 0%, 100%, 1.00)" stroke="none"/><circle r="6.053" cx="342.857" cy="114.286" fill="hsla(0, 0%, 100%, 1.00)" stroke="none"/><circle r="6.053" cx="400" cy="114.286" fill="hsla(0, 0%, 100%, 1.00)" stroke="none"/><circle r="6.053" cx="457.143" cy="114.286" fill="hsla(0, 0%, 100%, 1.00)" stroke="none"/><circle r="6.053" cx="514.286" cy="114.286" fill="hsla(0, 0%, 100%, 1.00)" stroke="none"/><circle r="6.053" cx="571.429" cy="114.286" fill="hsla(0, 0%, 100%, 1.00)" stroke="none"/><circle r="6.053" cx="628.571" cy="114.286" fill="hsla(0, 0%, 100%, 1.00)" stroke="none"/><circle r="6.053" cx="685.714" cy="114.286"/><circle r="6.053" cx="742.857" cy="114.286" fill="hsla(0, 0%, 100%, 1.00)" stroke="none"/><circle r="6.053" cx="800" cy="114.286" fill="hsla(0, 0%, 100%, 1.00)" stroke="none"/><circle r="6.053" cy="171.429" fill="hsla(0, 0%, 100%, 1.00)" stroke="none"/><circle r="6.053" cx="57.143" cy="171.429" fill="hsla(0, 0%, 100%, 1.00)" stroke="none"/><circle r="6.053" cx="114.286" cy="171.429" fill="hsla(0, 0%, 100%, 1.00)" stroke="none"/><circle r="6.053" cx="171.429" cy="171.429" fill="hsla(0, 0%, 100%, 1.00)" stroke="none"/><circle r="6.053" cx="228.571" cy="171.429"/><circle r="6.053" cx="285.714" cy="171.429"/><circle r="6.053" cx="342.857" cy="171.429" fill="hsla(0, 0%, 100%, 1.00)" stroke="none"/><circle r="6.053" cx="400" cy="171.429" fill="hsla(0, 0%, 100%, 1.00)" stroke="none"/><circle r="6.053" cx="457.143" cy="171.429" fill="hsla(0, 0%, 100%, 1.00)" stroke="none"/><circle r="6.053" cx="514.286" cy="171.429" fill="hsla(0, 0%, 100%, 1.00)" stroke="none"/><circle r="6.053" cx="571.429" cy="171.429" fill="hsla(0, 0%, 100%, 1.00)" stroke="none"/><circle r="6.053" cx="628.571" cy="171.429" fill="hsla(0, 0%, 100%, 1.00)" stroke="none"/><circle r="6.053" cx="685.714" cy="171.429" fill="hsla(0, 0%, 100%, 1.00)" stroke="none"/><circle r="6.053" cx="742.857" cy="171.429" fill="hsla(0, 0%, 100%, 1.00)" stroke="none"/><circle r="6.053" cx="800" cy="171.429" fill="hsla(0, 0%, 100%, 1.00)" stroke="none"/><circle r="6.053" cy="228.571" fill="hsla(0, 0%, 100%, 1.00)" stroke="none"/><circle r="6.053" cx="57.143" cy="228.571" fill="hsla(0, 0%, 100%, 1.00)" stroke="none"/><circle r="6.053" cx="114.286" cy="228.571"/><circle r="6.053" cx="171.429" cy="228.571"/><circle r="6.053" cx="228.571" cy="228.571" fill="hsla(0, 0%, 100%, 1.00)" stroke="none"/><circle r="6.053" cx="285.714" cy="228.571" fill="hsla(0, 0%, 100%, 1.00)" stroke="none"/><circle r="6.053" cx="342.857" cy="228.571" fill="hsla(0, 0%, 100%, 1.00)" stroke="none"/><circle r="6.053" cx="400" cy="228.571" fill="hsla(0, 0%, 100%, 1.00)" stroke="none"/><circle r="6.053" cx="457.143" cy="228.571" fill="hsla(0, 0%, 100%, 1.00)" stroke="none"/><circle r="6.053" cx="514.286" cy="228.571"/><circle r="6.053" cx="571.429" cy="228.571" fill="hsla(0, 0%, 100%, 1.00)" stroke="none"/><circle r="6.053" cx="628.571" cy="228.571" fill="hsla(0, 0%, 100%, 1.00)" stroke="none"/><circle r="6.053" cx="685.714" cy="228.571"/><circle r="6.053" cx="742.857" cy="228.571"/><circle r="6.053" cx="800" cy="228.571" fill="hsla(0, 0%, 100%, 1.00)" stroke="none"/><circle r="6.053" cy="285.714" fill="hsla(0, 0%, 100%, 1.00)" stroke="none"/><circle r="6.053" cx="57.143" cy="285.714"/><circle r="6.053" cx="114.286" cy="285.714" fill="hsla(0, 0%, 100%, 1.00)" stroke="none"/><circle r="6.053" cx="171.429" cy="285.714" fill="hsla(0, 0%, 100%, 1.00)" stroke="none"/><circle r="6.053" cx="228.571" cy="285.714" fill="hsla(0, 0%, 100%, 1.00)" stroke="none"/><circle r="6.053" cx="285.714" cy="285.714" fill="hsla(0, 0%, 100%, 1.00)" stroke="none"/><circle r="6.053" cx="342.857" cy="285.714" fill="hsla(0, 0%, 100%, 1.00)" stroke="none"/><circle r="6.053" cx="400" cy="285.714" fill="hsla(0, 0%, 100%, 1.00)" stroke="none"/><circle r="6.053" cx="457.143" cy="285.714" fill="hsla(0, 0%, 100%, 1.00)" stroke="none"/><circle r="6.053" cx="514.286" cy="285.714"/><circle r="6.053" cx="571.429" cy="285.714" fill="hsla(0, 0%, 100%, 1.00)" stroke="none"/><circle r="6.053" cx="628.571" cy="285.714" fill="hsla(0, 0%, 100%, 1.00)" stroke="none"/><circle r="6.053" cx="685.714" cy="285.714" fill="hsla(0, 0%, 100%, 1.00)" stroke="none"/><circle r="6.053" cx="742.857" cy="285.714"/><circle r="6.053" cx="800" cy="285.714" fill="hsla(0, 0%, 100%, 1.00)" stroke="none"/><circle r="6.053" cy="342.857" fill="hsla(0, 0%, 100%, 1.00)" stroke="none"/><circle r="6.053" cx="57.143" cy="342.857" fill="hsla(0, 0%, 100%, 1.00)" stroke="none"/><circle r="6.053" cx="114.286" cy="342.857" fill="hsla(0, 0%, 100%, 1.00)" stroke="none"/><circle r="6.053" cx="171.429" cy="342.857" fill="hsla(0, 0%, 100%, 1.00)" stroke="none"/><circle r="6.053" cx="228.571" cy="342.857"/><circle r="6.053" cx="285.714" cy="342.857"/><circle r="6.053" cx="342.857" cy="342.857" fill="hsla(0, 0%, 100%, 1.00)" stroke="none"/><circle r="6.053" cx="400" cy="342.857"/><circle r="6.053" cx="457.143" cy="342.857" fill="hsla(0, 0%, 100%, 1.00)" stroke="none"/><circle r="6.053" cx="514.286" cy="342.857" fill="hsla(0, 0%, 100%, 1.00)" stroke="none"/><circle r="6.053" cx="571.429" cy="342.857" fill="hsla(0, 0%, 100%, 1.00)" stroke="none"/><circle r="6.053" cx="628.571" cy="342.857" fill="hsla(0, 0%, 100%, 1.00)" stroke="none"/><circle r="6.053" cx="685.714" cy="342.857"/><circle r="6.053" cx="742.857" cy="342.857" fill="hsla(0, 0%, 100%, 1.00)" stroke="none"/><circle r="6.053" cx="800" cy="342.857" fill="hsla(0, 0%, 100%, 1.00)" stroke="none"/><circle r="6.053" cy="400" fill="hsla(0, 0%, 100%, 1.00)" stroke="none"/><circle r="6.053" cx="57.143" cy="400" fill="hsla(0, 0%, 100%, 1.00)" stroke="none"/><circle r="6.053" cx="114.286" cy="400" fill="hsla(0, 0%, 100%, 1.00)" stroke="none"/><circle r="6.053" cx="171.429" cy="400" fill="hsla(0, 0%, 100%, 1.00)" stroke="none"/><circle r="6.053" cx="228.571" cy="400" fill="hsla(0, 0%, 100%, 1.00)" stroke="none"/><circle r="6.053" cx="285.714" cy="400" fill="hsla(0, 0%, 100%, 1.00)" stroke="none"/><circle r="6.053" cx="342.857" cy="400" fill="hsla(0, 0%, 100%, 1.00)" stroke="none"/><circle r="6.053" cx="400" cy="400" fill="hsla(0, 0%, 100%, 1.00)" stroke="none"/><circle r="6.053" cx="457.143" cy="400"/><circle r="6.053" cx="514.286" cy="400" fill="hsla(0, 0%, 100%, 1.00)" stroke="none"/><circle r="6.053" cx="571.429" cy="400" fill="hsla(0, 0%, 100%, 1.00)" stroke="none"/><circle r="6.053" cx="628.571" cy="400" fill="hsla(0, 0%, 100%, 1.00)" stroke="none"/><circle r="6.053" cx="685.714" cy="400" fill="hsla(0, 0%, 100%, 1.00)" stroke="none"/><circle r="6.053" cx="742.857" cy="400" fill="hsla(0, 0%, 100%, 1.00)" stroke="none"/><circle r="6.053" cx="800" cy="400" fill="hsla(0, 0%, 100%, 1.00)" stroke="none"/><circle r="6.053" cy="457.143" fill="hsla(0, 0%, 100%, 1.00)" stroke="none"/><circle r="6.053" cx="57.143" cy="457.143" fill="hsla(0, 0%, 100%, 1.00)" stroke="none"/><circle r="6.053" cx="114.286" cy="457.143" fill="hsla(0, 0%, 100%, 1.00)" stroke="none"/><circle r="6.053" cx="171.429" cy="457.143"/><circle r="6.053" cx="228.571" cy="457.143"/><circle r="6.053" cx="285.714" cy="457.143" fill="hsla(0, 0%, 100%, 1.00)" stroke="none"/><circle r="6.053" cx="342.857" cy="457.143"/><circle r="6.053" cx="400" cy="457.143"/><circle r="6.053" cx="457.143" cy="457.143" fill="hsla(0, 0%, 100%, 1.00)" stroke="none"/><circle r="6.053" cx="514.286" cy="457.143"/><circle r="6.053" cx="571.429" cy="457.143" fill="hsla(0, 0%, 100%, 1.00)" stroke="none"/><circle r="6.053" cx="628.571" cy="457.143" fill="hsla(0, 0%, 100%, 1.00)" stroke="none"/><circle r="6.053" cx="685.714" cy="457.143"/><circle r="6.053" cx="742.857" cy="457.143" fill="hsla(0, 0%, 100%, 1.00)" stroke="none"/><circle r="6.053" cx="800" cy="457.143" fill="hsla(0, 0%, 100%, 1.00)" stroke="none"/><circle r="6.053" cy="514.286" fill="hsla(0, 0%, 100%, 1.00)" stroke="none"/><circle r="6.053" cx="57.143" cy="514.286" fill="hsla(0, 0%, 100%, 1.00)" stroke="none"/><circle r="6.053" cx="114.286" cy="514.286" fill="hsla(0, 0%, 100%, 1.00)" stroke="none"/><circle r="6.053" cx="171.429" cy="514.286" fill="hsla(0, 0%, 100%, 1.00)" stroke="none"/><circle r="6.053" cx="228.571" cy="514.286" fill="hsla(0, 0%, 100%, 1.00)" stroke="none"/><circle r="6.053" cx="285.714" cy="514.286"/><circle r="6.053" cx="342.857" cy="514.286" fill="hsla(0, 0%, 100%, 1.00)" stroke="none"/><circle r="6.053" cx="400" cy="514.286" fill="hsla(0, 0%, 100%, 1.00)" stroke="none"/><circle r="6.053" cx="457.143" cy="514.286" fill="hsla(0, 0%, 100%, 1.00)" stroke="none"/><circle r="6.053" cx="514.286" cy="514.286" fill="hsla(0, 0%, 100%, 1.00)" stroke="none"/><circle r="6.053" cx="571.429" cy="514.286" fill="hsla(0, 0%, 100%, 1.00)" stroke="none"/><circle r="6.053" cx="628.571" cy="514.286" fill="hsla(0, 0%, 100%, 1.00)" stroke="none"/><circle r="6.053" cx="685.714" cy="514.286" fill="hsla(0, 0%, 100%, 1.00)" stroke="none"/><circle r="6.053" cx="742.857" cy="514.286"/><circle r="6.053" cx="800" cy="514.286" fill="hsla(0, 0%, 100%, 1.00)" stroke="none"/><circle r="6.053" cy="571.429" fill="hsla(0, 0%, 100%, 1.00)" stroke="none"/><circle r="6.053" cx="57.143" cy="571.429"/><circle r="6.053" cx="114.286" cy="571.429"/><circle r="6.053" cx="171.429" cy="571.429" fill="hsla(0, 0%, 100%, 1.00)" stroke="none"/><circle r="6.053" cx="228.571" cy="571.429" fill="hsla(0, 0%, 100%, 1.00)" stroke="none"/><circle r="6.053" cx="285.714" cy="571.429" fill="hsla(0, 0%, 100%, 1.00)" stroke="none"/><circle r="6.053" cx="342.857" cy="571.429" fill="hsla(0, 0%, 100%, 1.00)" stroke="none"/><circle r="6.053" cx="400" cy="571.429"/><circle r="6.053" cx="457.143" cy="571.429"/><circle r="6.053" cx="514.286" cy="571.429" fill="hsla(0, 0%, 100%, 1.00)" stroke="none"/><circle r="6.053" cx="571.429" cy="571.429" fill="hsla(0, 0%, 100%, 1.00)" stroke="none"/><circle r="6.053" cx="628.571" cy="571.429" fill="hsla(0, 0%, 100%, 1.00)" stroke="none"/><circle r="6.053" cx="685.714" cy="571.429"/><circle r="6.053" cx="742.857" cy="571.429" fill="hsla(0, 0%, 100%, 1.00)" stroke="none"/><circle r="6.053" cx="800" cy="571.429" fill="hsla(0, 0%, 100%, 1.00)" stroke="none"/><circle r="6.053" cy="628.571" fill="hsla(0, 0%, 100%, 1.00)" stroke="none"/><circle r="6.053" cx="57.143" cy="628.571" fill="hsla(0, 0%, 100%, 1.00)" stroke="none"/><circle r="6.053" cx="114.286" cy="628.571" fill="hsla(0, 0%, 100%, 1.00)" stroke="none"/><circle r="6.053" cx="171.429" cy="628.571" fill="hsla(0, 0%, 100%, 1.00)" stroke="none"/><circle r="6.053" cx="228.571" cy="628.571" fill="hsla(0, 0%, 100%, 1.00)" stroke="none"/><circle r="6.053" cx="285.714" cy="628.571"/><circle r="6.053" cx="342.857" cy="628.571" fill="hsla(0, 0%, 100%, 1.00)" stroke="none"/><circle r="6.053" cx="400" cy="628.571"/><circle r="6.053" cx="457.143" cy="628.571" fill="hsla(0, 0%, 100%, 1.00)" stroke="none"/><circle r="6.053" cx="514.286" cy="628.571" fill="hsla(0, 0%, 100%, 1.00)" stroke="none"/><circle r="6.053" cx="571.429" cy="628.571" fill="hsla(0, 0%, 100%, 1.00)" stroke="none"/><circle r="6.053" cx="628.571" cy="628.571" fill="hsla(0, 0%, 100%, 1.00)" stroke="none"/><circle r="6.053" cx="685.714" cy="628.571" fill="hsla(0, 0%, 100%, 1.00)" stroke="none"/><circle r="6.053" cx="742.857" cy="628.571" fill="hsla(0, 0%, 100%, 1.00)" stroke="none"/><circle r="6.053" cx="800" cy="628.571" fill="hsla(0, 0%, 100%, 1.00)" stroke="none"/><circle r="6.053" cy="685.714" fill="hsla(0, 0%, 100%, 1.00)" stroke="none"/><circle r="6.053" cx="57.143" cy="685.714" fill="hsla(0, 0%, 100%, 1.00)" stroke="none"/><circle r="6.053" cx="114.286" cy="685.714" fill="hsla(0, 0%, 100%, 1.00)" stroke="none"/><circle r="6.053" cx="171.429" cy="685.714"/><circle r="6.053" cx="228.571" cy="685.714" fill="hsla(0, 0%, 100%, 1.00)" stroke="none"/><circle r="6.053" cx="285.714" cy="685.714" fill="hsla(0, 0%, 100%, 1.00)" stroke="none"/><circle r="6.053" cx="342.857" cy="685.714" fill="hsla(0, 0%, 100%, 1.00)" stroke="none"/><circle r="6.053" cx="400" cy="685.714" fill="hsla(0, 0%, 100%, 1.00)" stroke="none"/><circle r="6.053" cx="457.143" cy="685.714" fill="hsla(0, 0%, 100%, 1.00)" stroke="none"/><circle r="6.053" cx="514.286" cy="685.714" fill="hsla(0, 0%, 100%, 1.00)" stroke="none"/><circle r="6.053" cx="571.429" cy="685.714" fill="hsla(0, 0%, 100%, 1.00)" stroke="none"/><circle r="6.053" cx="628.571" cy="685.714" fill="hsla(0, 0%, 100%, 1.00)" stroke="none"/><circle r="6.053" cx="685.714" cy="685.714" fill="hsla(0, 0%, 100%, 1.00)" stroke="none"/><circle r="6.053" cx="742.857" cy="685.714" fill="hsla(0, 0%, 100%, 1.00)" stroke="none"/><circle r="6.053" cx="800" cy="685.714" fill="hsla(0, 0%, 100%, 1.00)" stroke="none"/><circle r="6.053" cy="742.857" fill="hsla(0, 0%, 100%, 1.00)" stroke="none"/><circle r="6.053" cx="57.143" cy="742.857" fill="hsla(0, 0%, 100%, 1.00)" stroke="none"/><circle r="6.053" cx="114.286" cy="742.857" fill="hsla(0, 0%, 100%, 1.00)" stroke="none"/><circle r="6.053" cx="171.429" cy="742.857" fill="hsla(0, 0%, 100%, 1.00)" stroke="none"/><circle r="6.053" cx="228.571" cy="742.857" fill="hsla(0, 0%, 100%, 1.00)" stroke="none"/><circle r="6.053" cx="285.714" cy="742.857" fill="hsla(0, 0%, 100%, 1.00)" stroke="none"/><circle r="6.053" cx="342.857" cy="742.857" fill="hsla(0, 0%, 100%, 1.00)" stroke="none"/><circle r="6.053" cx="400" cy="742.857" fill="hsla(0, 0%, 100%, 1.00)" stroke="none"/><circle r="6.053" cx="457.143" cy="742.857" fill="hsla(0, 0%, 100%, 1.00)" stroke="none"/><circle r="6.053" cx="514.286" cy="742.857"/><circle r="6.053" cx="571.429" cy="742.857"/><circle r="6.053" cx="628.571" cy="742.857" fill="hsla(0, 0%, 100%, 1.00)" stroke="none"/><circle r="6.053" cx="685.714" cy="742.857"/><circle r="6.053" cx="742.857" cy="742.857" fill="hsla(0, 0%, 100%, 1.00)" stroke="none"/><circle r="6.053" cx="800" cy="742.857" fill="hsla(0, 0%, 100%, 1.00)" stroke="none"/><circle r="6.053" cy="800" fill="hsla(0, 0%, 100%, 1.00)" stroke="none"/><circle r="6.053" cx="57.143" cy="800" fill="hsla(0, 0%, 100%, 1.00)" stroke="none"/><circle r="6.053" cx="114.286" cy="800" fill="hsla(0, 0%, 100%, 1.00)" stroke="none"/><circle r="6.053" cx="171.429" cy="800" fill="hsla(0, 0%, 100%, 1.00)" stroke="none"/><circle r="6.053" cx="228.571" cy="800" fill="hsla(0, 0%, 100%, 1.00)" stroke="none"/><circle r="6.053" cx="285.714" cy="800" fill="hsla(0, 0%, 100%, 1.00)" stroke="none"/><circle r="6.053" cx="342.857" cy="800" fill="hsla(0, 0%, 100%, 1.00)" stroke="none"/><circle r="6.053" cx="400" cy="800" fill="hsla(0, 0%, 100%, 1.00)" stroke="none"/><circle r="6.053" cx="457.143" cy="800" fill="hsla(0, 0%, 100%, 1.00)" stroke="none"/><circle r="6.053" cx="514.286" cy="800" fill="hsla(0, 0%, 100%, 1.00)" stroke="none"/><circle r="6.053" cx="571.429" cy="800" fill="hsla(0, 0%, 100%, 1.00)" stroke="none"/><circle r="6.053" cx="628.571" cy="800" fill="hsla(0, 0%, 100%, 1.00)" stroke="none"/><circle r="6.053" cx="685.714" cy="800" fill="hsla(0, 0%, 100%, 1.00)" stroke="none"/><circle r="6.053" cx="742.857" cy="800" fill="hsla(0, 0%, 100%, 1.00)" stroke="none"/><circle r="6.053" cx="800" cy="800" fill="hsla(0, 0%, 100%, 1.00)" stroke="none"/></g></svg>