<svg width="130" height="93" viewBox="0 0 130 93" fill="none" xmlns="http://www.w3.org/2000/svg">
<path d="M130 34.1558C127.877 36.6617 125.415 38.982 122.528 41.1168L130 41.1168V34.1558Z" fill="white"/>
<path d="M102.743 66.7337H121.169C117.773 60.7935 113.103 56.06 106.31 51.8833H89.9216C95.6107 56.06 99.7714 60.8863 102.743 66.7337Z" fill="white"/>
<path d="M43.305 29.4222C44.0692 28.4012 44.7485 27.2874 45.3429 26.1736H26.9171C23.9451 32.021 19.7845 36.8473 14.1803 41.024H30.4834C36.0026 37.6826 40.1633 33.8772 43.305 29.4222Z" fill="white"/>
<path d="M81.0908 66.7337H99.4317C96.3749 61.3504 92.2991 56.988 86.61 53.1826C85.9307 52.7186 85.3364 52.3474 84.6571 51.8833H68.354C73.9582 56.06 78.1189 60.8863 81.0908 66.7337Z" fill="white"/>
<path d="M59.4383 66.7336L77.8641 66.7337C74.4677 60.7935 69.7975 56.06 63.0046 51.8833H46.6166C52.3057 56.06 56.4663 60.8863 59.4383 66.7336Z" fill="white"/>
<path d="M66.9954 26.1736L48.5696 26.1736C47.1261 29.0509 45.3429 31.6497 43.305 34.1557C41.1822 36.6617 38.7198 38.982 35.8328 41.1168L52.1359 41.1168C58.9288 36.8473 63.6839 32.1138 66.9954 26.1736Z" fill="white"/>
<path d="M23.6904 26.1736L5.26454 26.1736C3.82104 29.0509 2.03788 31.6497 1.61827e-06 34.1557L1.3399e-06 41.1168H8.83085C15.6238 36.8473 20.2939 32.1138 23.6904 26.1736Z" fill="white"/>
<path d="M37.7857 66.7336H56.1267C53.0699 61.3504 48.9941 56.988 43.305 53.1826C42.6257 52.7186 42.0313 52.3474 41.3521 51.8833L25.049 51.8833C30.6532 56.06 34.8138 60.8863 37.7857 66.7336Z" fill="white"/>
<path d="M16.1332 66.7336H34.5591C31.1626 60.7935 26.4925 56.06 19.6995 51.8833H3.31158C9.00067 56.06 13.1613 60.8863 16.1332 66.7336Z" fill="white"/>
<path d="M110.385 26.1736L91.9595 26.1736C90.516 29.0509 88.7329 31.6497 86.695 34.1557C84.5722 36.6617 82.1097 38.982 79.2227 41.1168H95.5258C102.319 36.8473 106.989 32.1138 110.385 26.1736Z" fill="white"/>
<path d="M127.962 51.7904L111.659 51.7904C117.348 55.9671 121.424 60.7934 124.396 66.6407H129.915V53.0899C129.321 52.7186 128.641 52.2545 127.962 51.7904Z" fill="white"/>
<path d="M130 29.4222V26.1737L113.612 26.1736C110.64 32.021 106.479 36.8473 100.875 41.024L117.178 41.024C122.698 37.6826 126.858 33.8773 130 29.4222Z" fill="white"/>
<path d="M86.695 29.4222C87.4592 28.4012 88.1384 27.2874 88.7328 26.1736H70.307C67.3351 32.021 63.1744 36.8473 57.5702 41.024H73.7884C79.3076 37.6826 83.4683 33.8772 86.695 29.4222Z" fill="white"/>
<path d="M1.93746e-06 26.1736L1.80756e-06 29.4221C0.764208 28.4012 1.44352 27.2874 2.03791 26.1736H1.93746e-06Z" fill="white"/>
<path d="M8.61097e-07 53.0898L3.19202e-07 66.6407H12.8217C9.8498 61.3503 5.68909 56.9881 8.61097e-07 53.0898Z" fill="white"/>
<path d="M130 48.8205V44.1798L1.21741e-06 44.1797L1.03183e-06 48.8204L130 48.8205Z" fill="white"/>
<path d="M130 22.9252V18.3773L2.24924e-06 18.3772L2.06737e-06 22.9251L130 22.9252Z" fill="white"/>
<path d="M130 74.623V70.075L1.8187e-07 70.0749L0 74.6229L130 74.623Z" fill="white"/>
<path d="M128.472 12.3443V2.32037C128.472 1.02097 127.538 5.91518e-06 126.349 5.85838e-06L120.49 5.57845e-06C119.301 5.52165e-06 118.367 1.02096 118.367 2.32037V8.07482C118.367 8.91015 117.773 9.55983 117.008 9.55983C116.244 9.55983 115.65 8.91015 115.65 8.07482V2.32037C115.65 1.02096 114.716 5.30257e-06 113.527 5.24577e-06L107.668 4.96583e-06C106.479 4.90903e-06 105.545 1.02096 105.545 2.32037V12.3443C105.545 13.6437 106.479 14.6646 107.668 14.6646L126.349 14.6646C127.453 14.6646 128.472 13.6437 128.472 12.3443Z" fill="white"/>
<path d="M102.489 12.3443V2.32037C102.489 1.02096 101.555 4.67372e-06 100.366 4.61692e-06L94.5069 4.33699e-06C93.3181 4.28019e-06 92.3841 1.02096 92.3841 2.32037V8.07482C92.3841 8.91015 91.7897 9.55983 91.0255 9.55983C90.2612 9.55983 89.6669 8.91015 89.6669 8.07482V2.32037C89.6669 1.02096 88.7329 4.06111e-06 87.5441 4.00431e-06L81.6852 3.72437e-06C80.4964 3.66757e-06 79.5624 1.02096 79.5624 2.32037V12.3443C79.5624 13.6437 80.4964 14.6646 81.6852 14.6646L100.366 14.6646C101.47 14.6646 102.489 13.6437 102.489 12.3443Z" fill="white"/>
<path d="M76.5056 12.3443V2.32037C76.5056 1.02096 75.5715 3.43227e-06 74.3828 3.37547e-06L68.5238 3.09553e-06C67.3351 3.03873e-06 66.401 1.02096 66.401 2.32037V8.07482C66.401 8.91015 65.8067 9.55983 65.0425 9.55983C64.2783 9.55983 63.6838 8.91015 63.6838 8.07482V2.32037C63.6838 1.02096 62.7498 2.81965e-06 61.561 2.76285e-06L55.7022 2.48292e-06C54.5134 2.42612e-06 53.5794 1.02096 53.5794 2.32036V12.3443C53.5794 13.6437 54.5134 14.6646 55.7022 14.6646L74.3828 14.6646C75.4866 14.6646 76.5056 13.6437 76.5056 12.3443Z" fill="white"/>
<path d="M50.5225 12.3443V2.32036C50.5225 1.02096 49.5885 2.19081e-06 48.3997 2.13401e-06L42.5408 1.85407e-06C41.3521 1.79727e-06 40.418 1.02096 40.418 2.32036V8.07482C40.418 8.91015 39.8236 9.55983 39.0594 9.55983C38.2952 9.55983 37.7009 8.91015 37.7009 8.07482V2.32036C37.7009 1.02096 36.7668 1.57819e-06 35.5781 1.52139e-06L29.7191 1.24146e-06C28.5304 1.18466e-06 27.5963 1.02096 27.5963 2.32036V12.3443C27.5963 13.6437 28.5304 14.6646 29.7191 14.6646L48.3997 14.6646C49.5036 14.6646 50.5225 13.6437 50.5225 12.3443Z" fill="white"/>
<path d="M24.5395 12.3443V2.32036C24.5395 1.02096 23.6055 9.4935e-07 22.4167 8.92551e-07L16.5578 6.12614e-07C15.369 5.55815e-07 14.435 1.02096 14.435 2.32036V8.07482C14.435 8.91015 13.8406 9.55983 13.0764 9.55983C12.3122 9.55983 11.7179 8.91015 11.7179 8.07482V2.32036C11.7179 1.02096 10.7838 3.36737e-07 9.59508 2.79938e-07L3.73614 0C2.54738 -5.67987e-08 1.61335 1.02096 1.61335 2.32036L1.61335 12.3443C1.61335 13.6437 2.54738 14.6646 3.73614 14.6646L22.4167 14.6646C23.5206 14.6646 24.5395 13.6437 24.5395 12.3443Z" fill="white"/>
<path d="M128.472 80.6557V90.6796C128.472 91.979 127.538 93 126.349 93H120.49C119.301 93 118.367 91.979 118.367 90.6796V84.9252C118.367 84.0899 117.773 83.4402 117.008 83.4402C116.244 83.4402 115.65 84.0899 115.65 84.9252V90.6796C115.65 91.979 114.716 93 113.527 93H107.668C106.479 93 105.545 91.979 105.545 90.6796V80.6557C105.545 79.3563 106.479 78.3354 107.668 78.3354H126.349C127.453 78.3354 128.472 79.3563 128.472 80.6557Z" fill="white"/>
<path d="M102.489 80.6557V90.6796C102.489 91.979 101.555 93 100.366 93H94.5069C93.3181 93 92.3841 91.979 92.3841 90.6796V84.9252C92.3841 84.0899 91.7897 83.4402 91.0255 83.4402C90.2612 83.4402 89.6669 84.0899 89.6669 84.9252V90.6796C89.6669 91.979 88.7329 93 87.5441 93L81.6852 93C80.4964 93 79.5624 91.979 79.5624 90.6796V80.6557C79.5624 79.3563 80.4964 78.3354 81.6852 78.3354H100.366C101.47 78.3354 102.489 79.3563 102.489 80.6557Z" fill="white"/>
<path d="M76.5056 80.6557V90.6796C76.5056 91.979 75.5715 93 74.3828 93H68.5238C67.3351 93 66.401 91.979 66.401 90.6796V84.9252C66.401 84.0899 65.8067 83.4402 65.0425 83.4402C64.2783 83.4402 63.6838 84.0899 63.6838 84.9252V90.6796C63.6838 91.979 62.7498 93 61.561 93H55.7022C54.5134 93 53.5794 91.979 53.5794 90.6796V80.6557C53.5794 79.3563 54.5134 78.3354 55.7022 78.3354H74.3828C75.4866 78.3354 76.5056 79.3563 76.5056 80.6557Z" fill="white"/>
<path d="M50.5225 80.6557V90.6796C50.5225 91.979 49.5885 93 48.3997 93H42.5408C41.3521 93 40.418 91.979 40.418 90.6796V84.9252C40.418 84.0899 39.8236 83.4402 39.0594 83.4402C38.2952 83.4402 37.7009 84.0899 37.7009 84.9252V90.6796C37.7009 91.979 36.7668 93 35.5781 93H29.7191C28.5304 93 27.5963 91.979 27.5963 90.6796V80.6557C27.5963 79.3563 28.5304 78.3354 29.7191 78.3354H48.3997C49.5036 78.3354 50.5225 79.3563 50.5225 80.6557Z" fill="white"/>
<path d="M24.5395 80.6557V90.6796C24.5395 91.979 23.6055 93 22.4167 93H16.5578C15.369 93 14.435 91.979 14.435 90.6796V84.9252C14.435 84.0899 13.8406 83.4402 13.0764 83.4402C12.3122 83.4402 11.7179 84.0899 11.7179 84.9252V90.6796C11.7179 91.979 10.7838 93 9.59507 93H3.73614C2.54737 93 1.61334 91.979 1.61334 90.6796L1.61335 80.6557C1.61335 79.3563 2.54738 78.3354 3.73614 78.3354H22.4167C23.5206 78.3354 24.5395 79.3563 24.5395 80.6557Z" fill="white"/>
</svg>
