<svg width="282" height="100" viewBox="0 0 282 100" fill="none" xmlns="http://www.w3.org/2000/svg">
<path d="M217 67.7306C215.939 69.1048 214.707 70.3772 213.264 71.5479L217 71.5479V67.7306Z" fill="white"/>
<path d="M203.372 85.5959H212.585C210.886 82.3384 208.551 79.7426 205.155 77.4521H196.961C199.805 79.7426 201.886 82.3893 203.372 85.5959Z" fill="white"/>
<path d="M173.653 65.1347C174.035 64.5748 174.374 63.9641 174.671 63.3533H165.459C163.973 66.5599 161.892 69.2066 159.09 71.497H167.242C170.001 69.6647 172.082 67.5778 173.653 65.1347Z" fill="white"/>
<path d="M192.545 85.5959H201.716C200.187 82.6438 198.15 80.2515 195.305 78.1647C194.965 77.9102 194.668 77.7066 194.329 77.4521H186.177C188.979 79.7426 191.059 82.3893 192.545 85.5959Z" fill="white"/>
<path d="M181.719 85.5959L190.932 85.5959C189.234 82.3384 186.899 79.7426 183.502 77.4521H175.308C178.153 79.7426 180.233 82.3893 181.719 85.5959Z" fill="white"/>
<path d="M185.498 63.3533L176.285 63.3533C175.563 64.9311 174.671 66.3563 173.653 67.7305C172.591 69.1048 171.36 70.3772 169.916 71.5479L178.068 71.5479C181.464 69.2066 183.842 66.6108 185.498 63.3533Z" fill="white"/>
<path d="M163.845 63.3533L154.632 63.3533C153.911 64.9311 153.019 66.3563 152 67.7305L152 71.5479H156.415C159.812 69.2066 162.147 66.6108 163.845 63.3533Z" fill="white"/>
<path d="M170.893 85.5959H180.063C178.535 82.6438 176.497 80.2515 173.653 78.1647C173.313 77.9102 173.016 77.7066 172.676 77.4521L164.524 77.4521C167.327 79.7426 169.407 82.3893 170.893 85.5959Z" fill="white"/>
<path d="M160.067 85.5959H169.28C167.581 82.3384 165.246 79.7426 161.85 77.4521H153.656C156.5 79.7426 158.581 82.3893 160.067 85.5959Z" fill="white"/>
<path d="M207.193 63.3533L197.98 63.3533C197.258 64.9311 196.366 66.3563 195.347 67.7305C194.286 69.1048 193.055 70.3772 191.611 71.5479H199.763C203.159 69.2066 205.494 66.6108 207.193 63.3533Z" fill="white"/>
<path d="M215.981 77.4012L207.83 77.4012C210.674 79.6916 212.712 82.3383 214.198 85.5449H216.958V78.1138C216.66 77.9102 216.321 77.6557 215.981 77.4012Z" fill="white"/>
<path d="M217 65.1348V63.3533L208.806 63.3533C207.32 66.5599 205.24 69.2066 202.438 71.497L210.589 71.497C213.349 69.6647 215.429 67.5779 217 65.1348Z" fill="white"/>
<path d="M195.347 65.1347C195.73 64.5748 196.069 63.9641 196.366 63.3533H187.154C185.668 66.5599 183.587 69.2066 180.785 71.497H188.894C191.654 69.6647 193.734 67.5778 195.347 65.1347Z" fill="white"/>
<path d="M152 63.3533L152 65.1347C152.382 64.5748 152.722 63.9641 153.019 63.3533H152Z" fill="white"/>
<path d="M152 78.1138L152 85.5449H158.411C156.925 82.6437 154.845 80.2515 152 78.1138Z" fill="white"/>
<path d="M217 75.7725V73.2276L152 73.2276L152 75.7725L217 75.7725Z" fill="white"/>
<path d="M217 61.5719V59.0779L152 59.0778L152 61.5718L217 61.5719Z" fill="white"/>
<path d="M217 89.9223V87.4282L152 87.4282L152 89.9222L217 89.9223Z" fill="white"/>
<path d="M216.236 55.7694V50.2725C216.236 49.5599 215.769 49 215.174 49L212.245 49C211.651 49 211.184 49.5599 211.184 50.2725V53.4281C211.184 53.8862 210.886 54.2425 210.504 54.2425C210.122 54.2425 209.825 53.8862 209.825 53.4281V50.2725C209.825 49.5599 209.358 49 208.764 49L205.834 49C205.24 49 204.773 49.5599 204.773 50.2725V55.7694C204.773 56.482 205.24 57.0419 205.834 57.0419L215.174 57.0419C215.726 57.0419 216.236 56.482 216.236 55.7694Z" fill="white"/>
<path d="M203.244 55.7694V50.2725C203.244 49.5599 202.777 49 202.183 49L199.253 49C198.659 49 198.192 49.5599 198.192 50.2725V53.4281C198.192 53.8862 197.895 54.2425 197.513 54.2425C197.131 54.2425 196.833 53.8862 196.833 53.4281V50.2725C196.833 49.5599 196.366 49 195.772 49L192.843 49C192.248 49 191.781 49.5599 191.781 50.2725V55.7694C191.781 56.482 192.248 57.0419 192.843 57.0419L202.183 57.0419C202.735 57.0419 203.244 56.482 203.244 55.7694Z" fill="white"/>
<path d="M190.253 55.7694V50.2725C190.253 49.5599 189.786 49 189.191 49L186.262 49C185.668 49 185.201 49.5599 185.201 50.2725V53.4281C185.201 53.8862 184.903 54.2425 184.521 54.2425C184.139 54.2425 183.842 53.8862 183.842 53.4281V50.2725C183.842 49.5599 183.375 49 182.781 49L179.851 49C179.257 49 178.79 49.5599 178.79 50.2725V55.7694C178.79 56.482 179.257 57.0419 179.851 57.0419H189.191C189.743 57.0419 190.253 56.482 190.253 55.7694Z" fill="white"/>
<path d="M177.261 55.7694V50.2725C177.261 49.5599 176.794 49 176.2 49L173.27 49C172.676 49 172.209 49.5599 172.209 50.2725V53.4281C172.209 53.8862 171.912 54.2425 171.53 54.2425C171.148 54.2425 170.85 53.8862 170.85 53.4281V50.2725C170.85 49.5599 170.383 49 169.789 49L166.86 49C166.265 49 165.798 49.5599 165.798 50.2725V55.7694C165.798 56.482 166.265 57.0419 166.86 57.0419L176.2 57.0419C176.752 57.0419 177.261 56.482 177.261 55.7694Z" fill="white"/>
<path d="M164.27 55.7694V50.2725C164.27 49.5599 163.803 49 163.208 49L160.279 49C159.685 49 159.218 49.5599 159.218 50.2725V53.4281C159.218 53.8862 158.92 54.2425 158.538 54.2425C158.156 54.2425 157.859 53.8862 157.859 53.4281V50.2725C157.859 49.5599 157.392 49 156.798 49L153.868 49C153.274 49 152.807 49.5599 152.807 50.2725L152.807 55.7694C152.807 56.482 153.274 57.0419 153.868 57.0419H163.208C163.76 57.0419 164.27 56.482 164.27 55.7694Z" fill="white"/>
<path d="M216.236 93.2306V98.7275C216.236 99.4401 215.769 100 215.174 100H212.245C211.651 100 211.184 99.4401 211.184 98.7275V95.5719C211.184 95.1138 210.886 94.7575 210.504 94.7575C210.122 94.7575 209.825 95.1138 209.825 95.5719V98.7275C209.825 99.4401 209.358 100 208.764 100H205.834C205.24 100 204.773 99.4401 204.773 98.7275V93.2306C204.773 92.518 205.24 91.9581 205.834 91.9581H215.174C215.726 91.9581 216.236 92.518 216.236 93.2306Z" fill="white"/>
<path d="M203.244 93.2306V98.7275C203.244 99.4401 202.777 100 202.183 100H199.253C198.659 100 198.192 99.4401 198.192 98.7275V95.5719C198.192 95.1138 197.895 94.7575 197.513 94.7575C197.131 94.7575 196.833 95.1138 196.833 95.5719V98.7275C196.833 99.4401 196.366 100 195.772 100L192.843 100C192.248 100 191.781 99.4401 191.781 98.7275V93.2306C191.781 92.518 192.248 91.9581 192.843 91.9581H202.183C202.735 91.9581 203.244 92.518 203.244 93.2306Z" fill="white"/>
<path d="M190.253 93.2306V98.7275C190.253 99.4401 189.786 100 189.191 100H186.262C185.668 100 185.201 99.4401 185.201 98.7275V95.5719C185.201 95.1138 184.903 94.7575 184.521 94.7575C184.139 94.7575 183.842 95.1138 183.842 95.5719V98.7275C183.842 99.4401 183.375 100 182.781 100H179.851C179.257 100 178.79 99.4401 178.79 98.7275V93.2306C178.79 92.518 179.257 91.9581 179.851 91.9581H189.191C189.743 91.9581 190.253 92.518 190.253 93.2306Z" fill="white"/>
<path d="M177.261 93.2306V98.7275C177.261 99.4401 176.794 100 176.2 100H173.27C172.676 100 172.209 99.4401 172.209 98.7275V95.5719C172.209 95.1138 171.912 94.7575 171.53 94.7575C171.148 94.7575 170.85 95.1138 170.85 95.5719V98.7275C170.85 99.4401 170.383 100 169.789 100H166.86C166.265 100 165.798 99.4401 165.798 98.7275V93.2306C165.798 92.518 166.265 91.9581 166.86 91.9581H176.2C176.752 91.9581 177.261 92.518 177.261 93.2306Z" fill="white"/>
<path d="M164.27 93.2306V98.7275C164.27 99.4401 163.803 100 163.208 100H160.279C159.685 100 159.218 99.4401 159.218 98.7275V95.5719C159.218 95.1138 158.92 94.7575 158.538 94.7575C158.156 94.7575 157.859 95.1138 157.859 95.5719V98.7275C157.859 99.4401 157.392 100 156.798 100H153.868C153.274 100 152.807 99.4401 152.807 98.7275L152.807 93.2306C152.807 92.518 153.274 91.9581 153.868 91.9581H163.208C163.76 91.9581 164.27 92.518 164.27 93.2306Z" fill="white"/>
<path d="M282 67.7306C280.939 69.1048 279.707 70.3772 278.264 71.5479L282 71.5479V67.7306Z" fill="white"/>
<path d="M268.372 85.5959H277.585C275.886 82.3384 273.551 79.7426 270.155 77.4521H261.961C264.805 79.7426 266.886 82.3893 268.372 85.5959Z" fill="white"/>
<path d="M238.653 65.1347C239.035 64.5748 239.374 63.9641 239.671 63.3533H230.459C228.973 66.5599 226.892 69.2066 224.09 71.497H232.242C235.001 69.6647 237.082 67.5778 238.653 65.1347Z" fill="white"/>
<path d="M257.545 85.5959H266.716C265.187 82.6438 263.15 80.2515 260.305 78.1647C259.965 77.9102 259.668 77.7066 259.329 77.4521H251.177C253.979 79.7426 256.059 82.3893 257.545 85.5959Z" fill="white"/>
<path d="M246.719 85.5959L255.932 85.5959C254.234 82.3384 251.899 79.7426 248.502 77.4521H240.308C243.153 79.7426 245.233 82.3893 246.719 85.5959Z" fill="white"/>
<path d="M250.498 63.3533L241.285 63.3533C240.563 64.9311 239.671 66.3563 238.653 67.7305C237.591 69.1048 236.36 70.3772 234.916 71.5479L243.068 71.5479C246.464 69.2066 248.842 66.6108 250.498 63.3533Z" fill="white"/>
<path d="M228.845 63.3533L219.632 63.3533C218.911 64.9311 218.019 66.3563 217 67.7305L217 71.5479H221.415C224.812 69.2066 227.147 66.6108 228.845 63.3533Z" fill="white"/>
<path d="M235.893 85.5959H245.063C243.535 82.6438 241.497 80.2515 238.653 78.1647C238.313 77.9102 238.016 77.7066 237.676 77.4521L229.524 77.4521C232.327 79.7426 234.407 82.3893 235.893 85.5959Z" fill="white"/>
<path d="M225.067 85.5959H234.28C232.581 82.3384 230.246 79.7426 226.85 77.4521H218.656C221.5 79.7426 223.581 82.3893 225.067 85.5959Z" fill="white"/>
<path d="M272.193 63.3533L262.98 63.3533C262.258 64.9311 261.366 66.3563 260.347 67.7305C259.286 69.1048 258.055 70.3772 256.611 71.5479H264.763C268.159 69.2066 270.494 66.6108 272.193 63.3533Z" fill="white"/>
<path d="M280.981 77.4012L272.83 77.4012C275.674 79.6916 277.712 82.3383 279.198 85.5449H281.958V78.1138C281.66 77.9102 281.321 77.6557 280.981 77.4012Z" fill="white"/>
<path d="M282 65.1348V63.3533L273.806 63.3533C272.32 66.5599 270.24 69.2066 267.438 71.497L275.589 71.497C278.349 69.6647 280.429 67.5779 282 65.1348Z" fill="white"/>
<path d="M260.347 65.1347C260.73 64.5748 261.069 63.9641 261.366 63.3533H252.154C250.668 66.5599 248.587 69.2066 245.785 71.497H253.894C256.654 69.6647 258.734 67.5778 260.347 65.1347Z" fill="white"/>
<path d="M217 63.3533L217 65.1347C217.382 64.5748 217.722 63.9641 218.019 63.3533H217Z" fill="white"/>
<path d="M217 78.1138L217 85.5449H223.411C221.925 82.6437 219.845 80.2515 217 78.1138Z" fill="white"/>
<path d="M282 75.7725V73.2276L217 73.2276L217 75.7725L282 75.7725Z" fill="white"/>
<path d="M282 61.5719V59.0779L217 59.0778L217 61.5718L282 61.5719Z" fill="white"/>
<path d="M282 89.9223V87.4282L217 87.4282L217 89.9222L282 89.9223Z" fill="white"/>
<path d="M281.236 55.7694V50.2725C281.236 49.5599 280.769 49 280.174 49L277.245 49C276.651 49 276.184 49.5599 276.184 50.2725V53.4281C276.184 53.8862 275.886 54.2425 275.504 54.2425C275.122 54.2425 274.825 53.8862 274.825 53.4281V50.2725C274.825 49.5599 274.358 49 273.764 49L270.834 49C270.24 49 269.773 49.5599 269.773 50.2725V55.7694C269.773 56.482 270.24 57.0419 270.834 57.0419L280.174 57.0419C280.726 57.0419 281.236 56.482 281.236 55.7694Z" fill="white"/>
<path d="M268.244 55.7694V50.2725C268.244 49.5599 267.777 49 267.183 49L264.253 49C263.659 49 263.192 49.5599 263.192 50.2725V53.4281C263.192 53.8862 262.895 54.2425 262.513 54.2425C262.131 54.2425 261.833 53.8862 261.833 53.4281V50.2725C261.833 49.5599 261.366 49 260.772 49L257.843 49C257.248 49 256.781 49.5599 256.781 50.2725V55.7694C256.781 56.482 257.248 57.0419 257.843 57.0419L267.183 57.0419C267.735 57.0419 268.244 56.482 268.244 55.7694Z" fill="white"/>
<path d="M255.253 55.7694V50.2725C255.253 49.5599 254.786 49 254.191 49L251.262 49C250.668 49 250.201 49.5599 250.201 50.2725V53.4281C250.201 53.8862 249.903 54.2425 249.521 54.2425C249.139 54.2425 248.842 53.8862 248.842 53.4281V50.2725C248.842 49.5599 248.375 49 247.781 49L244.851 49C244.257 49 243.79 49.5599 243.79 50.2725V55.7694C243.79 56.482 244.257 57.0419 244.851 57.0419H254.191C254.743 57.0419 255.253 56.482 255.253 55.7694Z" fill="white"/>
<path d="M242.261 55.7694V50.2725C242.261 49.5599 241.794 49 241.2 49L238.27 49C237.676 49 237.209 49.5599 237.209 50.2725V53.4281C237.209 53.8862 236.912 54.2425 236.53 54.2425C236.148 54.2425 235.85 53.8862 235.85 53.4281V50.2725C235.85 49.5599 235.383 49 234.789 49L231.86 49C231.265 49 230.798 49.5599 230.798 50.2725V55.7694C230.798 56.482 231.265 57.0419 231.86 57.0419L241.2 57.0419C241.752 57.0419 242.261 56.482 242.261 55.7694Z" fill="white"/>
<path d="M229.27 55.7694V50.2725C229.27 49.5599 228.803 49 228.208 49L225.279 49C224.685 49 224.218 49.5599 224.218 50.2725V53.4281C224.218 53.8862 223.92 54.2425 223.538 54.2425C223.156 54.2425 222.859 53.8862 222.859 53.4281V50.2725C222.859 49.5599 222.392 49 221.798 49L218.868 49C218.274 49 217.807 49.5599 217.807 50.2725L217.807 55.7694C217.807 56.482 218.274 57.0419 218.868 57.0419H228.208C228.76 57.0419 229.27 56.482 229.27 55.7694Z" fill="white"/>
<path d="M281.236 93.2306V98.7275C281.236 99.4401 280.769 100 280.174 100H277.245C276.651 100 276.184 99.4401 276.184 98.7275V95.5719C276.184 95.1138 275.886 94.7575 275.504 94.7575C275.122 94.7575 274.825 95.1138 274.825 95.5719V98.7275C274.825 99.4401 274.358 100 273.764 100H270.834C270.24 100 269.773 99.4401 269.773 98.7275V93.2306C269.773 92.518 270.24 91.9581 270.834 91.9581H280.174C280.726 91.9581 281.236 92.518 281.236 93.2306Z" fill="white"/>
<path d="M268.244 93.2306V98.7275C268.244 99.4401 267.777 100 267.183 100H264.253C263.659 100 263.192 99.4401 263.192 98.7275V95.5719C263.192 95.1138 262.895 94.7575 262.513 94.7575C262.131 94.7575 261.833 95.1138 261.833 95.5719V98.7275C261.833 99.4401 261.366 100 260.772 100L257.843 100C257.248 100 256.781 99.4401 256.781 98.7275V93.2306C256.781 92.518 257.248 91.9581 257.843 91.9581H267.183C267.735 91.9581 268.244 92.518 268.244 93.2306Z" fill="white"/>
<path d="M255.253 93.2306V98.7275C255.253 99.4401 254.786 100 254.191 100H251.262C250.668 100 250.201 99.4401 250.201 98.7275V95.5719C250.201 95.1138 249.903 94.7575 249.521 94.7575C249.139 94.7575 248.842 95.1138 248.842 95.5719V98.7275C248.842 99.4401 248.375 100 247.781 100H244.851C244.257 100 243.79 99.4401 243.79 98.7275V93.2306C243.79 92.518 244.257 91.9581 244.851 91.9581H254.191C254.743 91.9581 255.253 92.518 255.253 93.2306Z" fill="white"/>
<path d="M242.261 93.2306V98.7275C242.261 99.4401 241.794 100 241.2 100H238.27C237.676 100 237.209 99.4401 237.209 98.7275V95.5719C237.209 95.1138 236.912 94.7575 236.53 94.7575C236.148 94.7575 235.85 95.1138 235.85 95.5719V98.7275C235.85 99.4401 235.383 100 234.789 100H231.86C231.265 100 230.798 99.4401 230.798 98.7275V93.2306C230.798 92.518 231.265 91.9581 231.86 91.9581H241.2C241.752 91.9581 242.261 92.518 242.261 93.2306Z" fill="white"/>
<path d="M229.27 93.2306V98.7275C229.27 99.4401 228.803 100 228.208 100H225.279C224.685 100 224.218 99.4401 224.218 98.7275V95.5719C224.218 95.1138 223.92 94.7575 223.538 94.7575C223.156 94.7575 222.859 95.1138 222.859 95.5719V98.7275C222.859 99.4401 222.392 100 221.798 100H218.868C218.274 100 217.807 99.4401 217.807 98.7275L217.807 93.2306C217.807 92.518 218.274 91.9581 218.868 91.9581H228.208C228.76 91.9581 229.27 92.518 229.27 93.2306Z" fill="white"/>
<path d="M16.4069 43.9458C13.8912 43.9458 11.6124 43.6568 9.57069 43.0788C7.5654 42.4647 5.77887 41.5977 4.2111 40.4778C2.64333 39.3218 1.23963 37.9672 0 36.4138L5.63304 30.0739C7.45602 32.4943 9.27901 34.1199 11.102 34.9507C12.9615 35.7816 14.8756 36.197 16.8444 36.197C17.8288 36.197 18.7221 36.0706 19.5242 35.8177C20.3263 35.5649 20.9461 35.2036 21.3837 34.734C21.8212 34.2282 22.0399 33.6141 22.0399 32.8916C22.0399 32.3498 21.8941 31.8621 21.6024 31.4286C21.3472 30.9951 20.9826 30.6158 20.5086 30.2906C20.0346 29.9655 19.4695 29.6765 18.8132 29.4236C18.157 29.1346 17.4642 28.8998 16.735 28.7192C16.0058 28.5025 15.2584 28.3218 14.4928 28.1773C12.3781 27.7077 10.5369 27.1297 8.96911 26.4433C7.40133 25.757 6.08878 24.9261 5.03145 23.9507C4.01058 22.9392 3.24492 21.8013 2.73448 20.5369C2.22405 19.2365 1.96883 17.7915 1.96883 16.202C1.96883 14.5041 2.35166 12.9507 3.11731 11.5419C3.91943 10.0969 4.97676 8.86864 6.28931 7.85714C7.63832 6.80952 9.18786 6.01478 10.9379 5.47291C12.688 4.89491 14.511 4.60591 16.4069 4.60591C18.9226 4.60591 21.0737 4.87685 22.8603 5.41872C24.6833 5.92447 26.2328 6.66503 27.5089 7.6404C28.8215 8.61577 29.9335 9.78982 30.845 11.1626L25.1026 16.6355C24.3369 15.6962 23.4983 14.9195 22.5868 14.3054C21.7118 13.6913 20.7638 13.2217 19.743 12.8966C18.7586 12.5714 17.7377 12.4089 16.6803 12.4089C15.5866 12.4089 14.6386 12.5534 13.8365 12.8424C13.0708 13.0952 12.4692 13.4745 12.0317 13.9803C11.5942 14.4499 11.3755 15.0279 11.3755 15.7143C11.3755 16.3284 11.5577 16.8522 11.9223 17.2857C12.2869 17.7192 12.7792 18.1166 13.399 18.4778C14.0188 18.803 14.7297 19.092 15.5319 19.3448C16.334 19.5616 17.1726 19.7422 18.0476 19.8867C20.0529 20.2841 21.8576 20.8079 23.4619 21.4581C25.1026 22.1084 26.5063 22.9031 27.673 23.8424C28.8761 24.7816 29.7876 25.9015 30.4075 27.202C31.0637 28.4663 31.3919 29.9475 31.3919 31.6453C31.3919 34.2824 30.7356 36.5222 29.423 38.3645C28.1469 40.1708 26.3786 41.5616 24.1181 42.5369C21.8941 43.4762 19.3237 43.9458 16.4069 43.9458Z" fill="white"/>
<path d="M37.9431 43.4039V14.6305H46.6934V43.4039H37.9431ZM42.3183 8.94089C40.6776 8.94089 39.3833 8.56158 38.4353 7.80296C37.5238 7.00821 37.0681 5.88834 37.0681 4.44335C37.0681 3.14286 37.542 2.07718 38.49 1.24631C39.4379 0.415435 40.714 0 42.3183 0C43.959 0 45.235 0.397373 46.1465 1.19212C47.058 1.95074 47.5138 3.03448 47.5138 4.44335C47.5138 5.77997 47.0398 6.86371 46.0919 7.69458C45.1804 8.52545 43.9225 8.94089 42.3183 8.94089Z" fill="white"/>
<path d="M65.9079 44C63.3922 44 61.1499 43.3678 59.1811 42.1035C57.2487 40.803 55.7174 39.0328 54.5871 36.7931C53.4569 34.5172 52.8917 31.9343 52.8917 29.0443C52.8917 26.1544 53.4569 23.5895 54.5871 21.3498C55.7174 19.0739 57.2669 17.2857 59.2357 15.9852C61.2046 14.6847 63.4651 14.0345 66.0173 14.0345C67.3298 14.0345 68.5877 14.2332 69.7908 14.6305C70.994 15.0279 72.0878 15.5698 73.0722 16.2562C74.0566 16.9425 74.8588 17.7373 75.4786 18.6404C76.0984 19.5074 76.463 20.4105 76.5724 21.3498L74.4942 21.8374V3.30542H83.2992V43.4039H75.1504L74.6582 36.8473L76.4083 37.1182C76.2989 38.0213 75.9343 38.8883 75.3145 39.7192C74.7311 40.5501 73.9655 41.2906 73.0175 41.9409C72.0696 42.555 70.9758 43.0427 69.7362 43.4039C68.533 43.8013 67.2569 44 65.9079 44ZM68.1502 36.7931C69.4992 36.7931 70.6659 36.468 71.6503 35.8177C72.6347 35.1675 73.3821 34.2644 73.8926 33.1084C74.4395 31.9524 74.7129 30.5977 74.7129 29.0443C74.7129 27.4548 74.4395 26.0821 73.8926 24.9261C73.3821 23.7701 72.6347 22.867 71.6503 22.2168C70.6659 21.5665 69.4992 21.2414 68.1502 21.2414C66.8011 21.2414 65.6344 21.5665 64.65 22.2168C63.7021 22.867 62.9546 23.7701 62.4077 24.9261C61.8608 26.0821 61.5874 27.4548 61.5874 29.0443C61.5874 30.5977 61.8608 31.9524 62.4077 33.1084C62.9546 34.2644 63.7021 35.1675 64.65 35.8177C65.6344 36.468 66.8011 36.7931 68.1502 36.7931Z" fill="white"/>
<path d="M90.7532 43.4039V3.30542H99.5036V43.4039H90.7532Z" fill="white"/>
<path d="M120.611 43.9458C117.402 43.9458 114.613 43.3136 112.243 42.0493C109.873 40.7488 108.032 38.9967 106.72 36.7931C105.407 34.5534 104.751 32.0066 104.751 29.1527C104.751 26.9491 105.115 24.9261 105.845 23.0837C106.574 21.2414 107.595 19.6519 108.907 18.3153C110.22 16.9425 111.769 15.8949 113.556 15.1724C115.379 14.4138 117.366 14.0345 119.517 14.0345C121.559 14.0345 123.418 14.3957 125.095 15.1182C126.809 15.8407 128.286 16.8522 129.525 18.1527C130.765 19.4532 131.713 20.9885 132.369 22.7586C133.025 24.5287 133.317 26.4614 133.244 28.5567L133.189 30.8867H110.056L108.798 26.0099H126.08L125.15 27.0394V25.9557C125.077 25.0525 124.785 24.2578 124.275 23.5714C123.801 22.8489 123.163 22.289 122.361 21.8916C121.559 21.4943 120.647 21.2956 119.626 21.2956C118.204 21.2956 116.983 21.5846 115.962 22.1626C114.978 22.7044 114.23 23.5172 113.72 24.601C113.209 25.6486 112.954 26.9491 112.954 28.5025C112.954 30.092 113.282 31.4828 113.939 32.6749C114.631 33.8309 115.616 34.734 116.892 35.3842C118.204 36.0345 119.754 36.3596 121.541 36.3596C122.78 36.3596 123.874 36.179 124.822 35.8177C125.806 35.4565 126.864 34.8424 127.994 33.9754L132.096 39.7192C130.965 40.6946 129.762 41.4893 128.486 42.1035C127.21 42.7176 125.897 43.1691 124.548 43.4581C123.236 43.7833 121.923 43.9458 120.611 43.9458Z" fill="white"/>
<path d="M148.608 43.9458C145.765 43.9458 143.249 43.4943 141.061 42.5911C138.91 41.688 137.197 40.4778 135.92 38.9606L141.225 34.4089C142.356 35.5287 143.632 36.3596 145.054 36.9015C146.476 37.4072 147.825 37.6601 149.101 37.6601C149.611 37.6601 150.067 37.6059 150.468 37.4975C150.869 37.3892 151.197 37.2447 151.452 37.064C151.744 36.8473 151.963 36.6125 152.109 36.3596C152.254 36.0706 152.327 35.7455 152.327 35.3842C152.327 34.6617 151.999 34.1018 151.343 33.7044C151.015 33.5238 150.468 33.3071 149.702 33.0542C148.937 32.8013 147.952 32.5123 146.749 32.1872C145.035 31.7537 143.541 31.2479 142.264 30.67C141.025 30.0558 140.004 29.3514 139.202 28.5567C138.473 27.798 137.908 26.9672 137.506 26.064C137.105 25.1248 136.905 24.0772 136.905 22.9212C136.905 21.5846 137.215 20.3744 137.835 19.2906C138.491 18.2069 139.348 17.2677 140.405 16.4729C141.499 15.6782 142.738 15.0821 144.124 14.6847C145.546 14.2512 147.004 14.0345 148.499 14.0345C150.103 14.0345 151.635 14.2151 153.093 14.5764C154.551 14.9376 155.9 15.4434 157.14 16.0936C158.416 16.7438 159.546 17.5205 160.531 18.4236L155.937 23.5172C155.281 22.9031 154.533 22.3612 153.695 21.8916C152.893 21.3859 152.054 20.9885 151.179 20.6995C150.304 20.4105 149.502 20.266 148.773 20.266C148.226 20.266 147.733 20.3202 147.296 20.4286C146.895 20.5008 146.548 20.6453 146.257 20.8621C145.965 21.0427 145.746 21.2775 145.601 21.5665C145.455 21.8194 145.382 22.1264 145.382 22.4877C145.382 22.8489 145.473 23.1921 145.655 23.5172C145.874 23.8424 146.166 24.1133 146.53 24.3301C146.895 24.5468 147.478 24.7997 148.28 25.0887C149.082 25.3415 150.176 25.6667 151.562 26.064C153.275 26.5337 154.752 27.0575 155.992 27.6355C157.231 28.2135 158.216 28.8998 158.945 29.6946C159.528 30.3087 159.966 31.0312 160.257 31.8621C160.549 32.6568 160.695 33.5238 160.695 34.4631C160.695 36.3054 160.166 37.9491 159.109 39.3941C158.088 40.803 156.666 41.9228 154.843 42.7537C153.02 43.5484 150.942 43.9458 148.608 43.9458Z" fill="white"/>
<path d="M165.897 43.4039V3.30542H174.483V20.4828L172.733 21.133C173.134 19.8325 173.845 18.6585 174.866 17.6108C175.923 16.5271 177.181 15.6601 178.64 15.0099C180.098 14.3596 181.629 14.0345 183.233 14.0345C185.421 14.0345 187.262 14.486 188.757 15.3892C190.252 16.2562 191.382 17.5747 192.148 19.3448C192.914 21.0788 193.296 23.2102 193.296 25.7389V43.4039H184.491V26.4433C184.491 25.2874 184.327 24.33 183.999 23.5714C183.671 22.8128 183.161 22.2529 182.468 21.8916C181.812 21.4943 180.991 21.3136 180.007 21.3498C179.241 21.3498 178.53 21.4762 177.874 21.7291C177.218 21.9458 176.652 22.289 176.178 22.7586C175.704 23.1921 175.322 23.6979 175.03 24.2759C174.775 24.8539 174.647 25.486 174.647 26.1724V43.4039H170.327C169.306 43.4039 168.431 43.4039 167.702 43.4039C166.972 43.4039 166.371 43.4039 165.897 43.4039Z" fill="white"/>
<path d="M211.331 43.8916C208.888 43.8916 206.701 43.2594 204.768 41.9951C202.872 40.6946 201.359 38.9245 200.229 36.6847C199.099 34.4089 198.534 31.844 198.534 28.9902C198.534 26.064 199.099 23.4811 200.229 21.2414C201.359 19.0016 202.909 17.2496 204.878 15.9852C206.847 14.6847 209.089 14.0345 211.605 14.0345C212.99 14.0345 214.248 14.2332 215.378 14.6305C216.545 15.0279 217.566 15.5879 218.441 16.3103C219.316 16.9967 220.063 17.8095 220.683 18.7488C221.303 19.6519 221.759 20.6273 222.05 21.6749L220.246 21.4581V14.6305H228.941V43.4039H220.081V36.468L222.05 36.4138C221.759 37.4253 221.285 38.3826 220.628 39.2857C219.972 40.1888 219.17 40.9836 218.222 41.67C217.274 42.3563 216.217 42.8982 215.05 43.2956C213.883 43.6929 212.644 43.8916 211.331 43.8916ZM213.737 36.5764C215.086 36.5764 216.253 36.2693 217.238 35.6552C218.222 35.0411 218.988 34.1741 219.535 33.0542C220.081 31.8982 220.355 30.5435 220.355 28.9902C220.355 27.4368 220.081 26.1002 219.535 24.9803C218.988 23.8243 218.222 22.9392 217.238 22.3251C216.253 21.6749 215.086 21.3498 213.737 21.3498C212.425 21.3498 211.276 21.6749 210.292 22.3251C209.344 22.9392 208.597 23.8243 208.05 24.9803C207.503 26.1002 207.229 27.4368 207.229 28.9902C207.229 30.5435 207.503 31.8982 208.05 33.0542C208.597 34.1741 209.344 35.0411 210.292 35.6552C211.276 36.2693 212.425 36.5764 213.737 36.5764Z" fill="white"/>
<path d="M236.608 43.4039V14.6305H244.92L245.194 19.8325L244.045 19.8867C244.483 18.9475 245.03 18.1166 245.686 17.3941C246.379 16.6716 247.144 16.0755 247.983 15.6059C248.858 15.1002 249.751 14.7209 250.663 14.468C251.611 14.2151 252.559 14.0887 253.507 14.0887C254.929 14.0887 256.223 14.3054 257.39 14.7389C258.556 15.1724 259.577 15.8768 260.452 16.8522C261.327 17.7915 262.02 19.0739 262.53 20.6995L261.163 20.5911L261.601 19.7241C262.075 18.8571 262.676 18.0805 263.405 17.3941C264.171 16.6716 265.01 16.0755 265.921 15.6059C266.833 15.1002 267.781 14.7209 268.765 14.468C269.75 14.2151 270.697 14.0887 271.609 14.0887C273.906 14.0887 275.82 14.5402 277.351 15.4434C278.883 16.3103 280.031 17.6289 280.797 19.399C281.599 21.1691 282 23.3186 282 25.8473V43.4039H273.195V26.5517C273.195 25.3957 273.031 24.4384 272.703 23.6798C272.375 22.9212 271.882 22.3612 271.226 22C270.606 21.6026 269.822 21.4039 268.874 21.4039C268.109 21.4039 267.398 21.5304 266.742 21.7833C266.122 22.0361 265.575 22.3793 265.101 22.8128C264.663 23.2463 264.317 23.7521 264.062 24.3301C263.807 24.908 263.679 25.5583 263.679 26.2808V43.4039H254.874V26.4975C254.874 25.4138 254.71 24.4926 254.382 23.734C254.054 22.9754 253.561 22.3974 252.905 22C252.249 21.6026 251.483 21.4039 250.608 21.4039C249.842 21.4039 249.132 21.5304 248.475 21.7833C247.855 22.0361 247.309 22.3793 246.835 22.8128C246.397 23.2463 246.051 23.7521 245.795 24.3301C245.54 24.908 245.413 25.5402 245.413 26.2266V43.4039H236.608Z" fill="white"/>
<path d="M12.3181 87.3871V57.2258H1V49H33.1586V57.2258H21.5684V87.3871H12.3181Z" fill="white"/>
<path d="M39.7137 100L46.2978 84.371L46.4067 88.8677L32.4767 58.2677H42.3256L48.42 72.9097C48.7464 73.6409 49.0548 74.4269 49.345 75.2677C49.6352 76.1086 49.8529 76.9129 49.998 77.6806L48.8009 78.3935C49.0185 77.8452 49.2543 77.1688 49.5082 76.3645C49.7985 75.5237 50.1068 74.628 50.4333 73.6774L55.7658 58.2677H65.6692L53.3716 87.3871L48.3656 100H39.7137Z" fill="white"/>
<path d="M69.811 87.3871V58.2677H78.0819L78.4628 67.7548L76.8304 65.9452C77.2657 64.3731 77.9731 62.9656 78.9525 61.7226C79.9682 60.4796 81.1472 59.4925 82.4894 58.7613C83.8316 58.0301 85.2645 57.6645 86.7881 57.6645C87.4411 57.6645 88.0396 57.7194 88.5838 57.829C89.1642 57.9387 89.6902 58.0667 90.1618 58.2129L87.7675 67.9194C87.3685 67.6634 86.8244 67.4624 86.1351 67.3161C85.4822 67.1333 84.7929 67.0419 84.0674 67.0419C83.2693 67.0419 82.5257 67.1882 81.8364 67.4806C81.1472 67.7366 80.5668 68.1204 80.0952 68.6323C79.6236 69.1441 79.2427 69.7473 78.9525 70.4419C78.6986 71.1366 78.5716 71.9226 78.5716 72.8V87.3871H69.811Z" fill="white"/>
<path d="M107.118 87.9355C103.926 87.9355 101.151 87.2957 98.7927 86.0161C96.4348 84.7 94.6029 82.9269 93.2969 80.6968C91.991 78.4301 91.338 75.8527 91.338 72.9645C91.338 70.7344 91.7008 68.6871 92.4263 66.8226C93.1518 64.9581 94.1676 63.3495 95.4735 61.9968C96.7794 60.6075 98.3211 59.5473 100.099 58.8161C101.912 58.0484 103.889 57.6645 106.03 57.6645C108.061 57.6645 109.911 58.0301 111.58 58.7613C113.285 59.4925 114.754 60.5161 115.988 61.8323C117.221 63.1484 118.164 64.7022 118.817 66.4935C119.47 68.2849 119.76 70.2409 119.688 72.3613L119.633 74.7194H96.6162L95.3647 69.7839H112.559L111.634 70.8258V69.729C111.562 68.8151 111.272 68.0108 110.764 67.3161C110.292 66.5849 109.657 66.0183 108.859 65.6161C108.061 65.214 107.154 65.0129 106.139 65.0129C104.724 65.0129 103.509 65.3054 102.493 65.8903C101.513 66.4387 100.77 67.2613 100.262 68.3581C99.754 69.4183 99.5001 70.7344 99.5001 72.3065C99.5001 73.9151 99.8266 75.3226 100.48 76.529C101.169 77.6989 102.148 78.6129 103.418 79.271C104.724 79.929 106.266 80.2581 108.043 80.2581C109.276 80.2581 110.365 80.0753 111.308 79.7097C112.287 79.3441 113.339 78.7226 114.464 77.8452L118.545 83.6581C117.42 84.6452 116.223 85.4495 114.954 86.071C113.684 86.6925 112.378 87.1495 111.036 87.4419C109.73 87.771 108.424 87.9355 107.118 87.9355Z" fill="white"/>
<path d="M134.975 87.9355C132.145 87.9355 129.642 87.4785 127.465 86.5645C125.325 85.6505 123.62 84.4258 122.351 82.8903L127.629 78.2839C128.753 79.4172 130.023 80.2581 131.438 80.8065C132.852 81.3183 134.195 81.5742 135.464 81.5742C135.972 81.5742 136.426 81.5194 136.825 81.4097C137.224 81.3 137.55 81.1538 137.804 80.971C138.094 80.7516 138.312 80.514 138.457 80.2581C138.602 79.9656 138.675 79.6366 138.675 79.271C138.675 78.5398 138.348 77.9731 137.695 77.571C137.369 77.3882 136.825 77.1688 136.063 76.9129C135.301 76.657 134.322 76.3645 133.124 76.0355C131.419 75.5968 129.932 75.0849 128.663 74.5C127.429 73.8785 126.413 73.1656 125.615 72.3613C124.89 71.5935 124.328 70.7527 123.929 69.8387C123.529 68.8882 123.33 67.828 123.33 66.6581C123.33 65.3054 123.638 64.0806 124.255 62.9839C124.908 61.8871 125.76 60.9366 126.812 60.1323C127.901 59.328 129.134 58.7247 130.513 58.3226C131.927 57.8839 133.378 57.6645 134.866 57.6645C136.462 57.6645 137.985 57.8473 139.436 58.2129C140.888 58.5785 142.23 59.0903 143.463 59.7484C144.733 60.4065 145.857 61.1925 146.837 62.1065L142.266 67.2613C141.613 66.6398 140.869 66.0914 140.035 65.6161C139.237 65.1043 138.403 64.7022 137.532 64.4097C136.661 64.1172 135.863 63.971 135.138 63.971C134.594 63.971 134.104 64.0258 133.669 64.1355C133.27 64.2086 132.925 64.3548 132.635 64.5742C132.345 64.757 132.127 64.9946 131.982 65.2871C131.837 65.543 131.764 65.8538 131.764 66.2194C131.764 66.5849 131.855 66.9323 132.036 67.2613C132.254 67.5903 132.544 67.8645 132.907 68.0839C133.27 68.3032 133.85 68.5591 134.648 68.8516C135.446 69.1075 136.534 69.4366 137.913 69.8387C139.618 70.314 141.087 70.8441 142.32 71.429C143.554 72.014 144.533 72.7086 145.259 73.5129C145.839 74.1344 146.274 74.8656 146.565 75.7065C146.855 76.5108 147 77.3882 147 78.3387C147 80.2032 146.474 81.8667 145.422 83.329C144.406 84.7548 142.992 85.8882 141.178 86.729C139.364 87.5333 137.296 87.9355 134.975 87.9355Z" fill="white"/>
</svg>
