<svg width="554" height="56" viewBox="0 0 554 56" fill="none" xmlns="http://www.w3.org/2000/svg">
<path d="M504 19.3234C503.184 20.3743 502.236 21.3473 501.126 22.2425L504 22.2425V19.3234Z" fill="white"/>
<path d="M493.517 32.9851H500.604C499.297 30.4941 497.501 28.509 494.888 26.7575H488.585C490.773 28.509 492.374 30.533 493.517 32.9851Z" fill="white"/>
<path d="M470.656 17.3383C470.95 16.9102 471.211 16.4431 471.44 15.976H464.353C463.21 18.4281 461.609 20.4521 459.454 22.2036H465.724C467.847 20.8024 469.447 19.2066 470.656 17.3383Z" fill="white"/>
<path d="M485.189 32.9851H492.243C491.067 30.7276 489.5 28.8982 487.312 27.3024C487.05 27.1078 486.822 26.9521 486.56 26.7575H480.29C482.445 28.509 484.046 30.533 485.189 32.9851Z" fill="white"/>
<path d="M476.861 32.9851L483.948 32.9851C482.641 30.4941 480.845 28.509 478.233 26.7575H471.929C474.118 28.509 475.718 30.533 476.861 32.9851Z" fill="white"/>
<path d="M479.767 15.976L472.681 15.976C472.125 17.1826 471.44 18.2724 470.656 19.3233C469.839 20.3742 468.892 21.3473 467.782 22.2425L474.052 22.2425C476.665 20.4521 478.494 18.4671 479.767 15.976Z" fill="white"/>
<path d="M463.112 15.976L456.025 15.976C455.47 17.1826 454.784 18.2724 454 19.3233L454 22.2425H457.396C460.009 20.4521 461.805 18.4671 463.112 15.976Z" fill="white"/>
<path d="M468.533 32.9851H475.587C474.411 30.7276 472.844 28.8982 470.656 27.3024C470.395 27.1078 470.166 26.9521 469.905 26.7575L463.634 26.7575C465.79 28.509 467.39 30.533 468.533 32.9851Z" fill="white"/>
<path d="M460.205 32.9851H467.292C465.986 30.4941 464.189 28.509 461.577 26.7575H455.274C457.462 28.509 459.062 30.533 460.205 32.9851Z" fill="white"/>
<path d="M496.456 15.976L489.369 15.976C488.814 17.1826 488.128 18.2724 487.344 19.3233C486.528 20.3742 485.581 21.3473 484.47 22.2425H490.741C493.353 20.4521 495.15 18.4671 496.456 15.976Z" fill="white"/>
<path d="M503.216 26.7186L496.946 26.7186C499.134 28.4701 500.701 30.494 501.845 32.9461H503.967V27.2635C503.739 27.1078 503.477 26.9132 503.216 26.7186Z" fill="white"/>
<path d="M504 17.3384V15.9761L497.697 15.976C496.554 18.4281 494.954 20.4521 492.798 22.2036L499.069 22.2036C501.191 20.8024 502.792 19.2066 504 17.3384Z" fill="white"/>
<path d="M487.344 17.3383C487.638 16.9102 487.899 16.4431 488.128 15.976H481.041C479.898 18.4281 478.298 20.4521 476.142 22.2036H482.38C484.503 20.8024 486.103 19.2066 487.344 17.3383Z" fill="white"/>
<path d="M454 15.976L454 17.3383C454.294 16.9102 454.555 16.4431 454.784 15.976H454Z" fill="white"/>
<path d="M454 27.2635L454 32.9461H458.931C457.788 30.7276 456.188 28.8982 454 27.2635Z" fill="white"/>
<path d="M504 25.4731V23.527L454 23.527L454 25.4731L504 25.4731Z" fill="white"/>
<path d="M504 14.6138V12.7066L454 12.7066L454 14.6138L504 14.6138Z" fill="white"/>
<path d="M504 36.2935V34.3863L454 34.3863L454 36.2935L504 36.2935Z" fill="white"/>
<path d="M503.412 10.1766V5.97306C503.412 5.42815 503.053 5 502.596 5L500.342 5C499.885 5 499.526 5.42815 499.526 5.97306V8.38622C499.526 8.73652 499.297 9.00896 499.003 9.00896C498.709 9.00896 498.481 8.73652 498.481 8.38622V5.97306C498.481 5.42815 498.121 5 497.664 5L495.411 5C494.954 5 494.594 5.42815 494.594 5.97306V10.1766C494.594 10.7215 494.954 11.1497 495.411 11.1497L502.596 11.1497C503.02 11.1497 503.412 10.7215 503.412 10.1766Z" fill="white"/>
<path d="M493.419 10.1766V5.97306C493.419 5.42815 493.059 5 492.602 5L490.349 5C489.892 5 489.532 5.42815 489.532 5.97306V8.38622C489.532 8.73651 489.304 9.00896 489.01 9.00896C488.716 9.00896 488.487 8.73651 488.487 8.38622V5.97306C488.487 5.42815 488.128 5 487.671 5L485.417 5C484.96 5 484.601 5.42815 484.601 5.97306V10.1766C484.601 10.7215 484.96 11.1497 485.417 11.1497L492.602 11.1497C493.027 11.1497 493.419 10.7215 493.419 10.1766Z" fill="white"/>
<path d="M483.425 10.1766V5.97306C483.425 5.42815 483.066 5 482.609 5L480.355 5C479.898 5 479.539 5.42815 479.539 5.97306V8.38621C479.539 8.73651 479.31 9.00896 479.016 9.00896C478.722 9.00896 478.494 8.73651 478.494 8.38621V5.97306C478.494 5.42815 478.135 5 477.677 5L475.424 5C474.967 5 474.607 5.42815 474.607 5.97306V10.1766C474.607 10.7215 474.967 11.1497 475.424 11.1497L482.609 11.1497C483.033 11.1497 483.425 10.7215 483.425 10.1766Z" fill="white"/>
<path d="M473.432 10.1766V5.97306C473.432 5.42815 473.072 5 472.615 5L470.362 5C469.905 5 469.545 5.42814 469.545 5.97306V8.38621C469.545 8.73651 469.317 9.00896 469.023 9.00896C468.729 9.00896 468.5 8.73651 468.5 8.38621V5.97306C468.5 5.42814 468.141 5 467.684 5L465.43 5C464.973 5 464.614 5.42814 464.614 5.97306V10.1766C464.614 10.7215 464.973 11.1497 465.43 11.1497L472.615 11.1497C473.04 11.1497 473.432 10.7215 473.432 10.1766Z" fill="white"/>
<path d="M463.438 10.1766V5.97306C463.438 5.42814 463.079 5 462.622 5L460.368 5C459.911 5 459.552 5.42814 459.552 5.97306V8.38621C459.552 8.73651 459.323 9.00896 459.029 9.00896C458.735 9.00896 458.507 8.73651 458.507 8.38621V5.97306C458.507 5.42814 458.148 5 457.69 5L455.437 5C454.98 5 454.621 5.42814 454.621 5.97306L454.621 10.1766C454.621 10.7215 454.98 11.1497 455.437 11.1497L462.622 11.1497C463.046 11.1497 463.438 10.7215 463.438 10.1766Z" fill="white"/>
<path d="M503.412 38.8234V43.0269C503.412 43.5719 503.053 44 502.596 44H500.342C499.885 44 499.526 43.5719 499.526 43.0269V40.6138C499.526 40.2635 499.297 39.991 499.003 39.991C498.709 39.991 498.481 40.2635 498.481 40.6138V43.0269C498.481 43.5719 498.121 44 497.664 44H495.411C494.954 44 494.594 43.5719 494.594 43.0269V38.8234C494.594 38.2785 494.954 37.8503 495.411 37.8503H502.596C503.02 37.8503 503.412 38.2785 503.412 38.8234Z" fill="white"/>
<path d="M493.419 38.8234V43.0269C493.419 43.5719 493.059 44 492.602 44H490.349C489.892 44 489.532 43.5719 489.532 43.0269V40.6138C489.532 40.2635 489.304 39.991 489.01 39.991C488.716 39.991 488.487 40.2635 488.487 40.6138V43.0269C488.487 43.5719 488.128 44 487.671 44L485.417 44C484.96 44 484.601 43.5719 484.601 43.0269V38.8234C484.601 38.2785 484.96 37.8503 485.417 37.8503H492.602C493.027 37.8503 493.419 38.2785 493.419 38.8234Z" fill="white"/>
<path d="M483.425 38.8234V43.0269C483.425 43.5719 483.066 44 482.609 44H480.355C479.898 44 479.539 43.5719 479.539 43.0269V40.6138C479.539 40.2635 479.31 39.991 479.016 39.991C478.722 39.991 478.494 40.2635 478.494 40.6138V43.0269C478.494 43.5719 478.135 44 477.677 44H475.424C474.967 44 474.607 43.5719 474.607 43.0269V38.8234C474.607 38.2785 474.967 37.8503 475.424 37.8503H482.609C483.033 37.8503 483.425 38.2785 483.425 38.8234Z" fill="white"/>
<path d="M473.432 38.8234V43.0269C473.432 43.5719 473.072 44 472.615 44H470.362C469.905 44 469.545 43.5719 469.545 43.0269V40.6138C469.545 40.2635 469.317 39.991 469.023 39.991C468.729 39.991 468.5 40.2635 468.5 40.6138V43.0269C468.5 43.5719 468.141 44 467.684 44H465.43C464.973 44 464.614 43.5719 464.614 43.0269V38.8234C464.614 38.2785 464.973 37.8503 465.43 37.8503H472.615C473.04 37.8503 473.432 38.2785 473.432 38.8234Z" fill="white"/>
<path d="M463.438 38.8234V43.0269C463.438 43.5719 463.079 44 462.622 44H460.368C459.911 44 459.552 43.5719 459.552 43.0269V40.6138C459.552 40.2635 459.323 39.991 459.029 39.991C458.735 39.991 458.507 40.2635 458.507 40.6138V43.0269C458.507 43.5719 458.148 44 457.69 44H455.437C454.98 44 454.621 43.5719 454.621 43.0269L454.621 38.8234C454.621 38.2785 454.98 37.8503 455.437 37.8503H462.622C463.046 37.8503 463.438 38.2785 463.438 38.8234Z" fill="white"/>
<path d="M554 19.3234C553.184 20.3743 552.236 21.3473 551.126 22.2425L554 22.2425V19.3234Z" fill="white"/>
<path d="M543.517 32.9851H550.604C549.297 30.4941 547.501 28.509 544.888 26.7575H538.585C540.773 28.509 542.374 30.533 543.517 32.9851Z" fill="white"/>
<path d="M520.656 17.3383C520.95 16.9102 521.211 16.4431 521.44 15.976H514.353C513.21 18.4281 511.609 20.4521 509.454 22.2036H515.724C517.847 20.8024 519.447 19.2066 520.656 17.3383Z" fill="white"/>
<path d="M535.189 32.9851H542.243C541.067 30.7276 539.5 28.8982 537.312 27.3024C537.05 27.1078 536.822 26.9521 536.56 26.7575H530.29C532.445 28.509 534.046 30.533 535.189 32.9851Z" fill="white"/>
<path d="M526.861 32.9851L533.948 32.9851C532.641 30.4941 530.845 28.509 528.233 26.7575H521.929C524.118 28.509 525.718 30.533 526.861 32.9851Z" fill="white"/>
<path d="M529.767 15.976L522.681 15.976C522.125 17.1826 521.44 18.2724 520.656 19.3233C519.839 20.3742 518.892 21.3473 517.782 22.2425L524.052 22.2425C526.665 20.4521 528.494 18.4671 529.767 15.976Z" fill="white"/>
<path d="M513.112 15.976L506.025 15.976C505.47 17.1826 504.784 18.2724 504 19.3233L504 22.2425H507.396C510.009 20.4521 511.805 18.4671 513.112 15.976Z" fill="white"/>
<path d="M518.533 32.9851H525.587C524.411 30.7276 522.844 28.8982 520.656 27.3024C520.395 27.1078 520.166 26.9521 519.905 26.7575L513.634 26.7575C515.79 28.509 517.39 30.533 518.533 32.9851Z" fill="white"/>
<path d="M510.205 32.9851H517.292C515.986 30.4941 514.189 28.509 511.577 26.7575H505.274C507.462 28.509 509.062 30.533 510.205 32.9851Z" fill="white"/>
<path d="M546.456 15.976L539.369 15.976C538.814 17.1826 538.128 18.2724 537.344 19.3233C536.528 20.3742 535.581 21.3473 534.47 22.2425H540.741C543.353 20.4521 545.15 18.4671 546.456 15.976Z" fill="white"/>
<path d="M553.216 26.7186L546.946 26.7186C549.134 28.4701 550.701 30.494 551.845 32.9461H553.967V27.2635C553.739 27.1078 553.477 26.9132 553.216 26.7186Z" fill="white"/>
<path d="M554 17.3384V15.9761L547.697 15.976C546.554 18.4281 544.954 20.4521 542.798 22.2036L549.069 22.2036C551.191 20.8024 552.792 19.2066 554 17.3384Z" fill="white"/>
<path d="M537.344 17.3383C537.638 16.9102 537.899 16.4431 538.128 15.976H531.041C529.898 18.4281 528.298 20.4521 526.142 22.2036H532.38C534.503 20.8024 536.103 19.2066 537.344 17.3383Z" fill="white"/>
<path d="M504 15.976L504 17.3383C504.294 16.9102 504.555 16.4431 504.784 15.976H504Z" fill="white"/>
<path d="M504 27.2635L504 32.9461H508.931C507.788 30.7276 506.188 28.8982 504 27.2635Z" fill="white"/>
<path d="M554 25.4731V23.527L504 23.527L504 25.4731L554 25.4731Z" fill="white"/>
<path d="M554 14.6138V12.7066L504 12.7066L504 14.6138L554 14.6138Z" fill="white"/>
<path d="M554 36.2935V34.3863L504 34.3863L504 36.2935L554 36.2935Z" fill="white"/>
<path d="M553.412 10.1766V5.97306C553.412 5.42815 553.053 5 552.596 5L550.342 5C549.885 5 549.526 5.42815 549.526 5.97306V8.38622C549.526 8.73652 549.297 9.00896 549.003 9.00896C548.709 9.00896 548.481 8.73652 548.481 8.38622V5.97306C548.481 5.42815 548.121 5 547.664 5L545.411 5C544.954 5 544.594 5.42815 544.594 5.97306V10.1766C544.594 10.7215 544.954 11.1497 545.411 11.1497L552.596 11.1497C553.02 11.1497 553.412 10.7215 553.412 10.1766Z" fill="white"/>
<path d="M543.419 10.1766V5.97306C543.419 5.42815 543.059 5 542.602 5L540.349 5C539.892 5 539.532 5.42815 539.532 5.97306V8.38622C539.532 8.73651 539.304 9.00896 539.01 9.00896C538.716 9.00896 538.487 8.73651 538.487 8.38622V5.97306C538.487 5.42815 538.128 5 537.671 5L535.417 5C534.96 5 534.601 5.42815 534.601 5.97306V10.1766C534.601 10.7215 534.96 11.1497 535.417 11.1497L542.602 11.1497C543.027 11.1497 543.419 10.7215 543.419 10.1766Z" fill="white"/>
<path d="M533.425 10.1766V5.97306C533.425 5.42815 533.066 5 532.609 5L530.355 5C529.898 5 529.539 5.42815 529.539 5.97306V8.38621C529.539 8.73651 529.31 9.00896 529.016 9.00896C528.722 9.00896 528.494 8.73651 528.494 8.38621V5.97306C528.494 5.42815 528.135 5 527.677 5L525.424 5C524.967 5 524.607 5.42815 524.607 5.97306V10.1766C524.607 10.7215 524.967 11.1497 525.424 11.1497L532.609 11.1497C533.033 11.1497 533.425 10.7215 533.425 10.1766Z" fill="white"/>
<path d="M523.432 10.1766V5.97306C523.432 5.42815 523.072 5 522.615 5L520.362 5C519.905 5 519.545 5.42814 519.545 5.97306V8.38621C519.545 8.73651 519.317 9.00896 519.023 9.00896C518.729 9.00896 518.5 8.73651 518.5 8.38621V5.97306C518.5 5.42814 518.141 5 517.684 5L515.43 5C514.973 5 514.614 5.42814 514.614 5.97306V10.1766C514.614 10.7215 514.973 11.1497 515.43 11.1497L522.615 11.1497C523.04 11.1497 523.432 10.7215 523.432 10.1766Z" fill="white"/>
<path d="M513.438 10.1766V5.97306C513.438 5.42814 513.079 5 512.622 5L510.368 5C509.911 5 509.552 5.42814 509.552 5.97306V8.38621C509.552 8.73651 509.323 9.00896 509.029 9.00896C508.735 9.00896 508.507 8.73651 508.507 8.38621V5.97306C508.507 5.42814 508.148 5 507.69 5L505.437 5C504.98 5 504.621 5.42814 504.621 5.97306L504.621 10.1766C504.621 10.7215 504.98 11.1497 505.437 11.1497L512.622 11.1497C513.046 11.1497 513.438 10.7215 513.438 10.1766Z" fill="white"/>
<path d="M553.412 38.8234V43.0269C553.412 43.5719 553.053 44 552.596 44H550.342C549.885 44 549.526 43.5719 549.526 43.0269V40.6138C549.526 40.2635 549.297 39.991 549.003 39.991C548.709 39.991 548.481 40.2635 548.481 40.6138V43.0269C548.481 43.5719 548.121 44 547.664 44H545.411C544.954 44 544.594 43.5719 544.594 43.0269V38.8234C544.594 38.2785 544.954 37.8503 545.411 37.8503H552.596C553.02 37.8503 553.412 38.2785 553.412 38.8234Z" fill="white"/>
<path d="M543.419 38.8234V43.0269C543.419 43.5719 543.059 44 542.602 44H540.349C539.892 44 539.532 43.5719 539.532 43.0269V40.6138C539.532 40.2635 539.304 39.991 539.01 39.991C538.716 39.991 538.487 40.2635 538.487 40.6138V43.0269C538.487 43.5719 538.128 44 537.671 44L535.417 44C534.96 44 534.601 43.5719 534.601 43.0269V38.8234C534.601 38.2785 534.96 37.8503 535.417 37.8503H542.602C543.027 37.8503 543.419 38.2785 543.419 38.8234Z" fill="white"/>
<path d="M533.425 38.8234V43.0269C533.425 43.5719 533.066 44 532.609 44H530.355C529.898 44 529.539 43.5719 529.539 43.0269V40.6138C529.539 40.2635 529.31 39.991 529.016 39.991C528.722 39.991 528.494 40.2635 528.494 40.6138V43.0269C528.494 43.5719 528.135 44 527.677 44H525.424C524.967 44 524.607 43.5719 524.607 43.0269V38.8234C524.607 38.2785 524.967 37.8503 525.424 37.8503H532.609C533.033 37.8503 533.425 38.2785 533.425 38.8234Z" fill="white"/>
<path d="M523.432 38.8234V43.0269C523.432 43.5719 523.072 44 522.615 44H520.362C519.905 44 519.545 43.5719 519.545 43.0269V40.6138C519.545 40.2635 519.317 39.991 519.023 39.991C518.729 39.991 518.5 40.2635 518.5 40.6138V43.0269C518.5 43.5719 518.141 44 517.684 44H515.43C514.973 44 514.614 43.5719 514.614 43.0269V38.8234C514.614 38.2785 514.973 37.8503 515.43 37.8503H522.615C523.04 37.8503 523.432 38.2785 523.432 38.8234Z" fill="white"/>
<path d="M513.438 38.8234V43.0269C513.438 43.5719 513.079 44 512.622 44H510.368C509.911 44 509.552 43.5719 509.552 43.0269V40.6138C509.552 40.2635 509.323 39.991 509.029 39.991C508.735 39.991 508.507 40.2635 508.507 40.6138V43.0269C508.507 43.5719 508.148 44 507.69 44H505.437C504.98 44 504.621 43.5719 504.621 43.0269L504.621 38.8234C504.621 38.2785 504.98 37.8503 505.437 37.8503H512.622C513.046 37.8503 513.438 38.2785 513.438 38.8234Z" fill="white"/>
<path d="M16.4069 43.9458C13.8912 43.9458 11.6124 43.6568 9.57069 43.0788C7.5654 42.4647 5.77887 41.5977 4.2111 40.4778C2.64333 39.3218 1.23963 37.9672 0 36.4138L5.63304 30.0739C7.45602 32.4943 9.27901 34.1199 11.102 34.9507C12.9615 35.7816 14.8756 36.197 16.8444 36.197C17.8288 36.197 18.7221 36.0706 19.5242 35.8177C20.3263 35.5649 20.9461 35.2036 21.3837 34.734C21.8212 34.2282 22.0399 33.6141 22.0399 32.8916C22.0399 32.3498 21.8941 31.8621 21.6024 31.4286C21.3472 30.9951 20.9826 30.6158 20.5086 30.2906C20.0346 29.9655 19.4695 29.6765 18.8132 29.4236C18.157 29.1347 17.4642 28.8998 16.735 28.7192C16.0058 28.5025 15.2584 28.3218 14.4928 28.1773C12.3781 27.7077 10.5369 27.1297 8.96911 26.4434C7.40133 25.757 6.08878 24.9261 5.03145 23.9507C4.01058 22.9392 3.24492 21.8013 2.73448 20.5369C2.22405 19.2365 1.96883 17.7915 1.96883 16.202C1.96883 14.5041 2.35166 12.9507 3.11731 11.5419C3.91943 10.0969 4.97676 8.86864 6.28931 7.85714C7.63832 6.80952 9.18786 6.01478 10.9379 5.47291C12.688 4.89491 14.511 4.60591 16.4069 4.60591C18.9226 4.60591 21.0738 4.87685 22.8603 5.41872C24.6833 5.92447 26.2328 6.66503 27.5089 7.6404C28.8215 8.61577 29.9335 9.78982 30.845 11.1626L25.1026 16.6355C24.3369 15.6962 23.4983 14.9195 22.5868 14.3054C21.7118 13.6913 20.7638 13.2217 19.743 12.8966C18.7586 12.5714 17.7377 12.4089 16.6803 12.4089C15.5866 12.4089 14.6386 12.5534 13.8365 12.8424C13.0708 13.0952 12.4692 13.4745 12.0317 13.9803C11.5942 14.4499 11.3755 15.0279 11.3755 15.7143C11.3755 16.3284 11.5577 16.8522 11.9223 17.2857C12.2869 17.7192 12.7792 18.1166 13.399 18.4778C14.0188 18.803 14.7297 19.092 15.5319 19.3448C16.334 19.5616 17.1726 19.7422 18.0476 19.8867C20.0529 20.2841 21.8576 20.8079 23.4619 21.4581C25.1026 22.1084 26.5063 22.9031 27.673 23.8424C28.8761 24.7816 29.7876 25.9015 30.4075 27.202C31.0637 28.4663 31.3919 29.9475 31.3919 31.6453C31.3919 34.2824 30.7356 36.5222 29.423 38.3645C28.1469 40.1708 26.3786 41.5616 24.1181 42.5369C21.8941 43.4762 19.3237 43.9458 16.4069 43.9458Z" fill="white"/>
<path d="M37.9431 43.4039V14.6305H46.6934V43.4039H37.9431ZM42.3183 8.94089C40.6776 8.94089 39.3833 8.56158 38.4353 7.80296C37.5238 7.00821 37.0681 5.88834 37.0681 4.44335C37.0681 3.14286 37.542 2.07718 38.49 1.24631C39.4379 0.415435 40.714 0 42.3183 0C43.959 0 45.235 0.397373 46.1465 1.19212C47.058 1.95074 47.5138 3.03448 47.5138 4.44335C47.5138 5.77997 47.0398 6.86371 46.0919 7.69458C45.1804 8.52545 43.9225 8.94089 42.3183 8.94089Z" fill="white"/>
<path d="M65.9079 44C63.3922 44 61.1499 43.3678 59.1811 42.1035C57.2487 40.803 55.7174 39.0328 54.5871 36.7931C53.4569 34.5172 52.8917 31.9343 52.8917 29.0443C52.8917 26.1544 53.4569 23.5895 54.5871 21.3498C55.7174 19.0739 57.2669 17.2857 59.2357 15.9852C61.2046 14.6847 63.4651 14.0345 66.0173 14.0345C67.3298 14.0345 68.5877 14.2332 69.7908 14.6305C70.994 15.0279 72.0878 15.5698 73.0722 16.2562C74.0566 16.9425 74.8588 17.7373 75.4786 18.6404C76.0984 19.5074 76.463 20.4105 76.5724 21.3498L74.4942 21.8374V3.30542H83.2992V43.4039H75.1504L74.6582 36.8473L76.4083 37.1182C76.2989 38.0213 75.9343 38.8883 75.3145 39.7192C74.7311 40.5501 73.9655 41.2906 73.0175 41.9409C72.0696 42.555 70.9758 43.0427 69.7362 43.4039C68.533 43.8013 67.2569 44 65.9079 44ZM68.1502 36.7931C69.4992 36.7931 70.6659 36.468 71.6503 35.8177C72.6347 35.1675 73.3821 34.2644 73.8926 33.1084C74.4395 31.9524 74.7129 30.5977 74.7129 29.0443C74.7129 27.4548 74.4395 26.0821 73.8926 24.9261C73.3821 23.7701 72.6347 22.867 71.6503 22.2168C70.6659 21.5665 69.4992 21.2414 68.1502 21.2414C66.8011 21.2414 65.6344 21.5665 64.65 22.2168C63.7021 22.867 62.9546 23.7701 62.4077 24.9261C61.8608 26.0821 61.5874 27.4548 61.5874 29.0443C61.5874 30.5977 61.8608 31.9524 62.4077 33.1084C62.9546 34.2644 63.7021 35.1675 64.65 35.8177C65.6344 36.468 66.8011 36.7931 68.1502 36.7931Z" fill="white"/>
<path d="M90.7532 43.4039V3.30542H99.5036V43.4039H90.7532Z" fill="white"/>
<path d="M120.611 43.9458C117.402 43.9458 114.613 43.3136 112.243 42.0493C109.873 40.7488 108.032 38.9967 106.72 36.7931C105.407 34.5534 104.751 32.0066 104.751 29.1527C104.751 26.9491 105.115 24.9261 105.845 23.0837C106.574 21.2414 107.595 19.6519 108.907 18.3153C110.22 16.9425 111.769 15.8949 113.556 15.1724C115.379 14.4138 117.366 14.0345 119.517 14.0345C121.559 14.0345 123.418 14.3957 125.095 15.1182C126.809 15.8407 128.286 16.8522 129.525 18.1527C130.765 19.4532 131.713 20.9885 132.369 22.7586C133.025 24.5287 133.317 26.4614 133.244 28.5567L133.189 30.8867H110.056L108.798 26.0099H126.08L125.15 27.0394V25.9557C125.077 25.0525 124.785 24.2578 124.275 23.5714C123.801 22.8489 123.163 22.289 122.361 21.8916C121.559 21.4943 120.647 21.2956 119.626 21.2956C118.204 21.2956 116.983 21.5846 115.962 22.1626C114.978 22.7044 114.23 23.5172 113.72 24.601C113.209 25.6486 112.954 26.9491 112.954 28.5025C112.954 30.092 113.282 31.4828 113.939 32.6749C114.631 33.8309 115.616 34.734 116.892 35.3842C118.204 36.0345 119.754 36.3596 121.541 36.3596C122.78 36.3596 123.874 36.179 124.822 35.8177C125.806 35.4565 126.864 34.8424 127.994 33.9754L132.096 39.7192C130.965 40.6946 129.762 41.4893 128.486 42.1035C127.21 42.7176 125.897 43.1691 124.548 43.4581C123.236 43.7833 121.923 43.9458 120.611 43.9458Z" fill="white"/>
<path d="M148.608 43.9458C145.765 43.9458 143.249 43.4943 141.061 42.5911C138.91 41.688 137.197 40.4778 135.92 38.9606L141.225 34.4089C142.356 35.5287 143.632 36.3596 145.054 36.9015C146.476 37.4072 147.825 37.6601 149.101 37.6601C149.611 37.6601 150.067 37.6059 150.468 37.4975C150.869 37.3892 151.197 37.2447 151.452 37.064C151.744 36.8473 151.963 36.6125 152.109 36.3596C152.254 36.0706 152.327 35.7455 152.327 35.3842C152.327 34.6617 151.999 34.1018 151.343 33.7044C151.015 33.5238 150.468 33.3071 149.702 33.0542C148.937 32.8013 147.952 32.5123 146.749 32.1872C145.035 31.7537 143.541 31.2479 142.264 30.67C141.025 30.0558 140.004 29.3514 139.202 28.5567C138.473 27.798 137.908 26.9672 137.506 26.064C137.105 25.1248 136.905 24.0772 136.905 22.9212C136.905 21.5846 137.215 20.3744 137.835 19.2906C138.491 18.2069 139.348 17.2677 140.405 16.4729C141.499 15.6782 142.738 15.0821 144.124 14.6847C145.546 14.2512 147.004 14.0345 148.499 14.0345C150.103 14.0345 151.635 14.2151 153.093 14.5764C154.551 14.9376 155.9 15.4434 157.14 16.0936C158.416 16.7438 159.546 17.5205 160.531 18.4236L155.937 23.5172C155.281 22.9031 154.533 22.3612 153.695 21.8916C152.892 21.3859 152.054 20.9885 151.179 20.6995C150.304 20.4105 149.502 20.266 148.773 20.266C148.226 20.266 147.733 20.3202 147.296 20.4286C146.895 20.5008 146.548 20.6453 146.257 20.8621C145.965 21.0427 145.746 21.2775 145.601 21.5665C145.455 21.8194 145.382 22.1264 145.382 22.4877C145.382 22.8489 145.473 23.1921 145.655 23.5172C145.874 23.8424 146.166 24.1133 146.53 24.3301C146.895 24.5468 147.478 24.7997 148.28 25.0887C149.082 25.3415 150.176 25.6667 151.562 26.064C153.275 26.5337 154.752 27.0575 155.992 27.6355C157.231 28.2135 158.216 28.8998 158.945 29.6946C159.528 30.3087 159.966 31.0312 160.257 31.8621C160.549 32.6568 160.695 33.5238 160.695 34.4631C160.695 36.3054 160.166 37.9491 159.109 39.3941C158.088 40.803 156.666 41.9228 154.843 42.7537C153.02 43.5484 150.942 43.9458 148.608 43.9458Z" fill="white"/>
<path d="M165.897 43.4039V3.30542H174.483V20.4828L172.733 21.133C173.134 19.8325 173.845 18.6585 174.866 17.6108C175.923 16.5271 177.181 15.6601 178.64 15.0099C180.098 14.3596 181.629 14.0345 183.233 14.0345C185.421 14.0345 187.262 14.486 188.757 15.3892C190.252 16.2562 191.382 17.5747 192.148 19.3448C192.914 21.0788 193.296 23.2102 193.296 25.7389V43.4039H184.491V26.4434C184.491 25.2874 184.327 24.33 183.999 23.5714C183.671 22.8128 183.161 22.2529 182.468 21.8916C181.812 21.4943 180.991 21.3136 180.007 21.3498C179.241 21.3498 178.53 21.4762 177.874 21.7291C177.218 21.9458 176.652 22.289 176.178 22.7586C175.704 23.1921 175.322 23.6979 175.03 24.2759C174.775 24.8539 174.647 25.486 174.647 26.1724V43.4039H170.327C169.306 43.4039 168.431 43.4039 167.702 43.4039C166.972 43.4039 166.371 43.4039 165.897 43.4039Z" fill="white"/>
<path d="M211.331 43.8916C208.888 43.8916 206.701 43.2594 204.768 41.9951C202.872 40.6946 201.359 38.9245 200.229 36.6847C199.099 34.4089 198.534 31.844 198.534 28.9902C198.534 26.064 199.099 23.4811 200.229 21.2414C201.359 19.0016 202.909 17.2496 204.878 15.9852C206.847 14.6847 209.089 14.0345 211.605 14.0345C212.99 14.0345 214.248 14.2332 215.378 14.6305C216.545 15.0279 217.566 15.5879 218.441 16.3103C219.316 16.9967 220.063 17.8095 220.683 18.7488C221.303 19.6519 221.759 20.6273 222.05 21.6749L220.246 21.4581V14.6305H228.941V43.4039H220.081V36.468L222.05 36.4138C221.759 37.4253 221.285 38.3826 220.628 39.2857C219.972 40.1888 219.17 40.9836 218.222 41.67C217.274 42.3563 216.217 42.8982 215.05 43.2956C213.883 43.6929 212.644 43.8916 211.331 43.8916ZM213.737 36.5764C215.086 36.5764 216.253 36.2693 217.238 35.6552C218.222 35.0411 218.988 34.1741 219.535 33.0542C220.081 31.8982 220.355 30.5435 220.355 28.9902C220.355 27.4368 220.081 26.1002 219.535 24.9803C218.988 23.8243 218.222 22.9392 217.238 22.3251C216.253 21.6749 215.086 21.3498 213.737 21.3498C212.425 21.3498 211.276 21.6749 210.292 22.3251C209.344 22.9392 208.597 23.8243 208.05 24.9803C207.503 26.1002 207.229 27.4368 207.229 28.9902C207.229 30.5435 207.503 31.8982 208.05 33.0542C208.597 34.1741 209.344 35.0411 210.292 35.6552C211.276 36.2693 212.425 36.5764 213.737 36.5764Z" fill="white"/>
<path d="M236.608 43.4039V14.6305H244.92L245.194 19.8325L244.045 19.8867C244.483 18.9475 245.03 18.1166 245.686 17.3941C246.379 16.6716 247.144 16.0755 247.983 15.6059C248.858 15.1002 249.751 14.7209 250.663 14.468C251.611 14.2151 252.559 14.0887 253.507 14.0887C254.929 14.0887 256.223 14.3054 257.39 14.7389C258.556 15.1724 259.577 15.8768 260.452 16.8522C261.327 17.7915 262.02 19.0739 262.53 20.6995L261.163 20.5911L261.601 19.7241C262.075 18.8571 262.676 18.0805 263.405 17.3941C264.171 16.6716 265.01 16.0755 265.921 15.6059C266.833 15.1002 267.781 14.7209 268.765 14.468C269.75 14.2151 270.697 14.0887 271.609 14.0887C273.906 14.0887 275.82 14.5402 277.351 15.4434C278.883 16.3103 280.031 17.6289 280.797 19.399C281.599 21.1691 282 23.3186 282 25.8473V43.4039H273.195V26.5517C273.195 25.3957 273.031 24.4384 272.703 23.6798C272.375 22.9212 271.882 22.3613 271.226 22C270.606 21.6026 269.822 21.4039 268.874 21.4039C268.109 21.4039 267.398 21.5304 266.742 21.7833C266.122 22.0361 265.575 22.3793 265.101 22.8128C264.663 23.2463 264.317 23.7521 264.062 24.3301C263.807 24.908 263.679 25.5583 263.679 26.2808V43.4039H254.874V26.4975C254.874 25.4138 254.71 24.4926 254.382 23.734C254.054 22.9754 253.561 22.3974 252.905 22C252.249 21.6026 251.483 21.4039 250.608 21.4039C249.842 21.4039 249.132 21.5304 248.475 21.7833C247.855 22.0361 247.309 22.3793 246.835 22.8128C246.397 23.2463 246.051 23.7521 245.795 24.3301C245.54 24.908 245.413 25.5402 245.413 26.2266V43.4039H236.608Z" fill="white"/>
<path d="M306.318 43.3871V13.2258H295V5H327.159V13.2258H315.568V43.3871H306.318Z" fill="white"/>
<path d="M333.714 56L340.298 40.371L340.407 44.8677L326.477 14.2677H336.326L342.42 28.9097C342.746 29.6409 343.055 30.4269 343.345 31.2677C343.635 32.1086 343.853 32.9129 343.998 33.6806L342.801 34.3935C343.019 33.8452 343.254 33.1688 343.508 32.3645C343.798 31.5237 344.107 30.628 344.433 29.6774L349.766 14.2677H359.669L347.372 43.3871L342.366 56H333.714Z" fill="white"/>
<path d="M363.811 43.3871V14.2677H372.082L372.463 23.7548L370.83 21.9452C371.266 20.3731 371.973 18.9656 372.953 17.7226C373.968 16.4796 375.147 15.4925 376.489 14.7613C377.832 14.0301 379.265 13.6645 380.788 13.6645C381.441 13.6645 382.04 13.7194 382.584 13.829C383.164 13.9387 383.69 14.0667 384.162 14.2129L381.768 23.9194C381.369 23.6634 380.824 23.4624 380.135 23.3161C379.482 23.1333 378.793 23.0419 378.067 23.0419C377.269 23.0419 376.526 23.1882 375.836 23.4806C375.147 23.7366 374.567 24.1204 374.095 24.6323C373.624 25.1441 373.243 25.7473 372.953 26.4419C372.699 27.1366 372.572 27.9226 372.572 28.8V43.3871H363.811Z" fill="white"/>
<path d="M401.118 43.9355C397.926 43.9355 395.151 43.2957 392.793 42.0161C390.435 40.7 388.603 38.9269 387.297 36.6968C385.991 34.4301 385.338 31.8527 385.338 28.9645C385.338 26.7344 385.701 24.6871 386.426 22.8226C387.152 20.9581 388.168 19.3495 389.473 17.9968C390.779 16.6075 392.321 15.5473 394.099 14.8161C395.912 14.0484 397.889 13.6645 400.03 13.6645C402.061 13.6645 403.911 14.0301 405.58 14.7613C407.285 15.4925 408.754 16.5161 409.988 17.8323C411.221 19.1484 412.164 20.7022 412.817 22.4935C413.47 24.2849 413.76 26.2409 413.688 28.3613L413.633 30.7194H390.616L389.365 25.7839H406.559L405.634 26.8258V25.729C405.562 24.8151 405.272 24.0108 404.764 23.3161C404.292 22.5849 403.657 22.0183 402.859 21.6161C402.061 21.214 401.154 21.0129 400.139 21.0129C398.724 21.0129 397.509 21.3054 396.493 21.8903C395.513 22.4387 394.77 23.2613 394.262 24.3581C393.754 25.4183 393.5 26.7344 393.5 28.3065C393.5 29.9151 393.827 31.3226 394.48 32.529C395.169 33.6989 396.148 34.6129 397.418 35.271C398.724 35.929 400.266 36.2581 402.043 36.2581C403.276 36.2581 404.365 36.0753 405.308 35.7097C406.287 35.3441 407.339 34.7226 408.464 33.8452L412.545 39.6581C411.42 40.6452 410.223 41.4495 408.954 42.071C407.684 42.6925 406.378 43.1495 405.036 43.4419C403.73 43.771 402.424 43.9355 401.118 43.9355Z" fill="white"/>
<path d="M428.975 43.9355C426.145 43.9355 423.642 43.4785 421.465 42.5645C419.325 41.6505 417.62 40.4258 416.351 38.8903L421.629 34.2839C422.753 35.4172 424.023 36.2581 425.438 36.8065C426.852 37.3183 428.195 37.5742 429.464 37.5742C429.972 37.5742 430.426 37.5194 430.825 37.4097C431.224 37.3 431.55 37.1538 431.804 36.971C432.094 36.7516 432.312 36.514 432.457 36.2581C432.602 35.9656 432.675 35.6366 432.675 35.271C432.675 34.5398 432.348 33.9731 431.695 33.571C431.369 33.3882 430.825 33.1688 430.063 32.9129C429.301 32.657 428.322 32.3645 427.124 32.0355C425.419 31.5968 423.932 31.0849 422.663 30.5C421.429 29.8785 420.413 29.1656 419.615 28.3613C418.89 27.5936 418.328 26.7527 417.929 25.8387C417.529 24.8882 417.33 23.828 417.33 22.6581C417.33 21.3054 417.638 20.0806 418.255 18.9839C418.908 17.8871 419.76 16.9366 420.812 16.1323C421.901 15.328 423.134 14.7247 424.513 14.3226C425.927 13.8839 427.378 13.6645 428.866 13.6645C430.462 13.6645 431.985 13.8473 433.436 14.2129C434.888 14.5785 436.23 15.0903 437.463 15.7484C438.733 16.4065 439.857 17.1925 440.837 18.1065L436.266 23.2613C435.613 22.6398 434.869 22.0914 434.035 21.6161C433.237 21.1043 432.403 20.7022 431.532 20.4097C430.661 20.1172 429.863 19.971 429.138 19.971C428.594 19.971 428.104 20.0258 427.669 20.1355C427.27 20.2086 426.925 20.3548 426.635 20.5742C426.345 20.757 426.127 20.9946 425.982 21.2871C425.837 21.543 425.764 21.8538 425.764 22.2194C425.764 22.5849 425.855 22.9323 426.036 23.2613C426.254 23.5903 426.544 23.8645 426.907 24.0839C427.27 24.3032 427.85 24.5591 428.648 24.8516C429.446 25.1075 430.534 25.4366 431.913 25.8387C433.618 26.314 435.087 26.8441 436.32 27.429C437.554 28.014 438.533 28.7086 439.259 29.5129C439.839 30.1344 440.274 30.8656 440.565 31.7065C440.855 32.5108 441 33.3882 441 34.3387C441 36.2032 440.474 37.8667 439.422 39.329C438.406 40.7548 436.992 41.8882 435.178 42.729C433.364 43.5333 431.296 43.9355 428.975 43.9355Z" fill="white"/>
</svg>
